<svg width="20" height="20" fill="none" xmlns="http://www.w3.org/2000/svg"><path d="M10 20c5.523 0 10-4.477 10-10S15.523 0 10 0 0 4.477 0 10s4.477 10 10 10z" fill="#F0F0F0"/><path d="M2.068 3.911a9.963 9.963 0 00-1.723 3.48h5.202l-3.48-3.48zM19.656 7.39a9.964 9.964 0 00-1.722-3.479l-3.48 3.48h5.202zM.345 12.608a9.965 9.965 0 001.723 3.48l3.48-3.48H.344zM16.09 2.067A9.964 9.964 0 0012.61.344v5.202l3.48-3.479zM3.912 17.933a9.964 9.964 0 003.48 1.722v-5.202l-3.48 3.48zM7.392.344a9.964 9.964 0 00-3.48 1.723l3.48 3.48V.343zm5.218 19.311a9.963 9.963 0 003.48-1.722l-3.48-3.48v5.202zm1.844-7.047l3.48 3.48a9.963 9.963 0 001.722-3.48h-5.202z" fill="#0052B4"/><path d="M19.915 8.696h-8.61V.085a10.1 10.1 0 00-2.61 0v8.61H.086a10.1 10.1 0 000 2.61h8.61v8.61a10.114 10.114 0 002.61 0v-8.61h8.61a10.115 10.115 0 000-2.61z" fill="#D80027"/><path d="M12.609 12.609l4.462 4.462c.205-.205.401-.42.588-.642l-3.82-3.82h-1.23zm-5.219 0L2.929 17.07c.206.205.42.401.642.588l3.82-3.82v-1.23zm.001-5.217L2.93 2.928c-.205.205-.4.42-.588.642l3.82 3.82h1.23zm5.218-.001L17.07 2.93a9.982 9.982 0 00-.642-.588l-3.82 3.82v1.23z" fill="#D80027"/></svg>