<svg width="20" height="20" fill="none" xmlns="http://www.w3.org/2000/svg"><g clip-path="url(#clip0)"><path d="M10 20c5.523 0 10-4.477 10-10S15.523 0 10 0 0 4.477 0 10s4.477 10 10 10z" fill="#F0F0F0"/><path d="M19.378 13.478A9.977 9.977 0 0020 10c0-1.223-.22-2.395-.622-3.478H.622A9.979 9.979 0 000 10c0 1.223.22 2.395.622 3.478l9.378.87 9.378-.87z" fill="#0052B4"/><path d="M10 20c4.3 0 7.965-2.714 9.378-6.522H.622A10.003 10.003 0 0010 20z" fill="#D80027"/></g><defs><clipPath id="clip0"><path fill="#fff" d="M0 0h20v20H0z"/></clipPath></defs></svg>