<svg width="23" height="26" fill="none" xmlns="http://www.w3.org/2000/svg"><path d="M22.765 14.538c.749-6.3-.36-10.279-2.358-12.078-3.226-3.073-14.122-3.528-17.981.137C.692 4.39.082 7.022.015 10.28c-.067 3.259-.147 9.363 5.542 11.02h.005l-.005 2.528s-.039 1.025.616 1.23c.748.243 1.087-.232 3.415-3.013 3.893.337 6.883-.436 7.223-.55.786-.263 5.235-.851 5.954-6.956zM9.972 20.264s-2.464 3.073-3.23 3.87c-.252.26-.527.236-.522-.279 0-.337.018-4.198.018-4.198-4.822-1.382-4.538-6.58-4.486-9.3.053-2.72.55-4.948 2.018-6.448C7.156.734 16.71 1.444 19.142 3.731c2.976 2.638 1.917 10.09 1.923 10.344-.612 5.096-4.216 5.419-4.879 5.64-.283.093-2.913.77-6.214.55z" fill="#fff"/><path d="M11.335 4.506c-.402 0-.402.627 0 .633 3.123.024 5.695 2.2 5.723 6.193 0 .421.617.416.611-.005-.034-4.302-2.842-6.797-6.334-6.82z" fill="#fff"/><path d="M15.443 10.67c-.01.416.606.436.611.015.052-2.372-1.411-4.326-4.16-4.532-.402-.03-.444.603-.042.632 2.383.181 3.639 1.808 3.59 3.885zm-.659 2.698c-.516-.299-1.042-.112-1.26.181l-.454.589c-.232.299-.663.26-.663.26-3.151-.834-3.994-4.131-3.994-4.131s-.039-.447.25-.686l.569-.47c.284-.226.464-.77.174-1.304-.773-1.398-1.293-1.88-1.558-2.25-.278-.348-.696-.427-1.13-.192h-.01c-.904.53-1.894 1.52-1.578 2.539.54 1.075 1.534 4.5 4.7 7.09 1.487 1.223 3.842 2.478 4.841 2.768l.01.014c.984.328 1.942-.7 2.453-1.632v-.007c.227-.45.152-.877-.18-1.156-.587-.573-1.474-1.206-2.17-1.613z" fill="#fff"/><path d="M12.325 8.486c1.005.059 1.492.584 1.544 1.661.02.422.63.393.612-.029-.067-1.407-.8-2.191-2.122-2.264-.403-.024-.44.608-.034.632z" fill="#fff"/></svg>