<svg width="67" height="335" fill="none" xmlns="http://www.w3.org/2000/svg"><g clip-path="url(#clip0)"><g filter="url(#filter0_dd)" fill="#38CB21"><path d="M38.47 232.423h-4.692c-.47 0-.704-.229-.938-.457-.235-.229-.47-.458-.47-.916v-1.831c0-3.89 0-8.01.939-10.756.938-2.517 3.05-4.577 5.395-5.492 1.877-.687 3.518-.458 5.16.228 2.58 1.374 2.815 3.662 3.05 4.806v.229h.234c1.173.229 3.519.458 4.926 2.747.939 1.373.939 3.204.47 5.034-.704 2.289-2.815 4.349-5.396 5.493-2.345.915-5.395.915-8.679.915zm-3.05-2.746h3.284c2.815 0 5.63 0 7.506-.687 1.877-.686 3.284-2.059 3.753-3.661.235-1.144.235-2.06-.234-2.746-.704-1.145-1.642-1.374-2.815-1.374-.704 0-1.408-.228-2.111-.686-.47-.458-.704-1.144-.704-1.831-.235-.915-.235-2.06-1.642-2.746-.704-.458-1.642-.458-2.815 0-1.407.229-2.815 1.602-3.518 3.433-.939 2.288-.939 5.95-.939 9.611l.235.687c-.235 0 0 0 0 0z"/><path d="M26.507 249.359c-.939 0-1.877-.229-2.58-.458-3.05-1.144-3.05-3.662-3.284-5.035v-.229h-.235c-1.173 0-3.753-.229-5.16-2.975-.704-1.602-.704-3.662 0-5.492.938-2.06 2.814-3.891 5.16-4.806 2.815-.687 6.333-.687 10.086-.687h3.284c.47 0 .704.229.939.458.234.229.469.686.469.915v2.746c0 3.891.234 7.324-.938 10.07-.939 2.289-2.58 4.119-4.926 5.035a8.94 8.94 0 01-2.815.458zm-8.21-9.612c.469 1.144 1.407 1.373 2.58 1.373.704 0 1.642 0 2.111.686.47.458.704 1.373.704 2.06 0 1.373.235 2.06 1.407 2.517.939.458 2.111.458 3.284 0a6.797 6.797 0 003.284-3.432c.704-2.06.704-5.493.704-8.926v-1.373h-1.877c-3.284 0-6.802 0-8.679.687-1.642.686-3.049 1.831-3.518 3.204-.47.915-.47 2.288 0 3.204z"/><path d="M41.284 249.359c-.938 0-1.876-.229-2.58-.458-2.346-.915-3.988-2.746-5.16-5.035-1.173-2.746-1.173-6.179-1.173-10.07v-2.746c0-.458.234-.686.469-.915.234-.229.469-.458.938-.458h3.284c3.753-.229 7.272-.229 9.617.687 2.58.915 4.457 2.746 5.395 5.034.704 1.831.704 3.662 0 5.264-1.172 2.518-3.753 2.746-4.926 2.975h-.234v.229c0 1.144-.235 3.662-3.05 5.035-.703.229-1.642.458-2.58.458zm-6.099-16.936v1.373c0 3.204 0 6.637.939 8.697.703 1.602 1.876 2.975 3.518 3.662 1.173.457 2.346.457 3.284 0 1.173-.458 1.408-1.373 1.408-2.518 0-.686 0-1.602.703-2.059.47-.458 1.408-.687 2.111-.687 1.173-.229 2.111-.229 2.815-1.373.47-.916.47-1.831 0-2.975-.703-1.602-1.876-2.747-3.753-3.433-1.876-.687-5.395-.687-8.444-.458-1.173-.229-1.877-.229-2.58-.229z"/><path d="M29.322 232.423c-3.05 0-5.865-.229-7.976-.915-2.58-.916-4.691-2.746-5.395-5.035-.938-1.831-.938-3.662 0-5.264 1.408-2.746 3.753-2.975 4.926-2.975 0-1.144.235-3.661 3.05-5.035 1.642-.915 3.518-.915 5.395-.228 2.345.915 4.222 2.746 5.395 5.263.938 2.289.938 5.493.703 8.926v3.89c0 .458-.234.687-.469.916-.469.228-.703.457-1.173.457h-4.456zm-3.988-16.706c-1.407.686-1.407 1.602-1.407 2.517 0 .687 0 1.373-.704 2.06s-1.407.687-2.111.687c-1.173 0-2.111.228-2.815 1.602-.47.915-.47 1.83 0 2.975.704 1.602 2.111 2.746 3.753 3.432 2.346.916 5.864.687 9.383.687h.703v-2.746c0-2.975.235-5.95-.469-7.781-.469-1.602-1.876-2.975-3.284-3.662-1.172-.229-2.11-.229-3.049.229zm5.395 42.796c-.235 0-.704-.229-.938-.458-.704-.457-.704-1.373-.235-2.059 3.988-4.578 2.815-13.045 2.815-13.045 0-.687.703-1.373 1.407-1.373.704 0 1.408.457 1.642 1.144 0 .458 1.408 9.841-3.518 15.333-.235.229-.704.458-1.173.458z"/></g><g filter="url(#filter1_dd)" fill="#FAFF00"><path d="M25.577 166.255c-.746 0-1.493-.5-1.493-1.25s.498-1.5 1.244-1.75l4.725-.75 2.239-5.25c.248-.75 1.243-1.25 1.99-.75.746.5 1.243 1.5.746 2.25l-2.488 5.75c-.248.5-.497 1-1.243 1l-5.72.75c.248 0 .248 0 0 0z"/><path d="M20.354 189.005c-.25 0-.746 0-.995-.25-.498-.25-.746-1-.498-1.5l2.487-14.75-10.694-10.5c-.497-.25-.497-1-.497-1.5.248-.5.746-1 1.243-1l14.674-2.25 6.715-13.5c.249-.5.746-.75 1.492-.75.498 0 .995.25 1.244.75l6.715 13.5 14.673 2.25c.498 0 .995.5 1.244 1 .248.5 0 1.25-.498 1.5l-10.694 10.5 2.487 14.75c0 .5-.249 1.25-.497 1.5-.498.25-.995.5-1.493 0l-13.18-7-13.182 7c-.249.25-.498.25-.746.25zm-5.472-27l8.954 8.75c.248.25.497.75.497 1.25l-2.238 12.5 11.191-6c.498-.25.995-.25 1.492 0l11.192 6-2.238-12.5c0-.5 0-1 .497-1.25l8.954-8.75-12.436-1.75c-.497 0-.994-.5-1.243-.75l-5.223-11.5-5.72 11.5c-.249.25-.497.75-.995.75l-12.684 1.75z"/></g><g filter="url(#filter2_dd)" fill="#FAFF00"><path d="M23.789 303.556c-.747 0-1.493-.5-1.493-1.25s.498-1.5 1.244-1.75l4.725-.75 2.239-5.25c.248-.75 1.243-1.25 1.99-.75.745.5 1.243 1.5.745 2.25l-2.487 5.75c-.248.5-.497 1-1.243 1l-5.72.75c.248 0 .248 0 0 0z"/><path d="M18.566 326.306c-.25 0-.747 0-.995-.25-.498-.25-.746-1-.498-1.5l2.487-14.75-10.694-10.5c-.497-.25-.497-1-.497-1.5.248-.5.746-1 1.243-1l14.674-2.25 6.715-13.5c.248-.5.746-.75 1.492-.75.497 0 .995.25 1.243.75l6.716 13.5 14.673 2.25c.498 0 .995.5 1.244 1 .248.5 0 1.25-.498 1.5l-10.694 10.5 2.487 14.75c0 .5-.249 1.25-.497 1.5-.498.25-.995.5-1.493 0l-13.181-7-13.181 7c-.249.25-.498.25-.747.25zm-5.472-27l8.953 8.75c.25.25.498.75.498 1.25l-2.239 12.5 11.192-6c.498-.25.995-.25 1.492 0l11.192 6-2.238-12.5c0-.5 0-1 .497-1.25l8.954-8.75-12.436-1.75c-.497 0-.995-.5-1.243-.75l-5.223-11.5-5.72 11.5c-.249.25-.498.75-.995.75l-12.684 1.75z"/></g><g filter="url(#filter3_dd)" fill="#0091FF"><path d="M40.847 92.27c0-1.178.934-2.356 2.337-2.356h6.076c1.402 0 2.337.235 3.038.707.7.47 1.168 1.178 1.402 1.885.234.942.467 1.885.467 3.298 0 1.178-.233 2.121-.7 2.828-.468.707-1.17 1.178-2.104 1.414.701.235 1.402.471 1.87.942.467.472.467 1.178.467 2.121v5.655c0 1.414-.468 2.356-1.87 2.356-1.402 0-1.87-1.413-1.87-2.356v-5.891c0-.471-.467-1.413-1.401-1.413h-3.74v7.069c0 1.649-.7 2.356-1.87 2.356-1.167 0-1.869-1.178-1.869-2.356v-16.26h-.233zm8.413 5.655c.7 0 1.168-1.178 1.168-2.356 0-.943-.467-1.885-1.168-1.885h-4.44v4.477h4.44v-.236zM10.934 92.27c0-1.178.935-2.12 2.103-2.12h3.74c1.869 0 3.271.47 4.206 1.177.935.707 1.402 1.885 1.402 3.535v.942c0 1.885-.234 2.828-1.168 3.535 1.168.236 1.87.707 2.337 1.649.233.707.467 1.885.467 3.299 0 2.121-.467 4.006-1.168 4.948-.935 1.179-2.337 1.65-4.674 1.65h-5.142c-1.168.235-2.103-.707-2.103-1.885V92.27zm6.31 5.655c.935 0 1.168-.942 1.168-1.414v-2.12c0-.707-.467-.943-1.168-.943h-2.57v4.713h2.57v-.236zm2.804 7.776v-2.592c0-.707-.467-1.885-1.636-1.885h-3.739v6.126h3.272c1.402 0 2.103-.471 2.103-1.649zM25.423 109c.234-.943 2.104-17.201 2.104-17.201 0-.943.934-1.65 2.103-1.65h5.375c1.168 0 1.87.707 2.103 1.885 0 0 1.87 16.023 2.103 16.966.234.942-.467 2.12-1.87 2.12-1.401 0-2.103-1.178-2.103-2.12 0-.943-.233-1.178-.233-1.178H29.63s0 .235-.234 1.413c0 1.179-.935 1.885-2.337 1.885-1.168 0-1.87-.942-1.636-2.12zm4.44-4.713h4.674l-.934-10.603h-2.337l-1.403 10.603zm-9.815-15.552c-.467 0-.935-.235-1.402-.707-.467-.706-.467-1.885.234-2.356 3.739-3.299 8.413-5.184 13.554-5.184 4.908 0 9.582 1.65 13.087 4.949.701.707.935 1.649.234 2.591-.701.707-1.636.943-2.57.236-6.077-5.42-15.892-5.42-21.968 0a1.777 1.777 0 01-1.169.471zm12.386 32.753c-4.907 0-9.581-1.885-13.32-5.184-.701-.706-.701-1.649-.234-2.592.701-.706 1.636-.706 2.57-.235 6.31 5.419 16.126 5.419 22.202-.236.7-.707 1.87-.707 2.57.236.701.707.468 1.885-.233 2.592-3.74 3.534-8.647 5.419-13.555 5.419z"/></g><g filter="url(#filter4_dd)" fill="#CB2121"><path d="M51.645 28.465L34.966 9.179c-.736-.494-1.471-.989-2.453-.989-.735 0-1.717.495-2.207.99L14.117 28.96c-.98 1.236-.98 2.72 0 3.955l16.68 19.286c.735.495 1.471.99 2.207.99.981 0 1.717-.495 2.208-.99L51.4 32.668c1.227-1.483 1.227-3.214.245-4.203zm-18.641 21.51l-16.68-19.038 16.19-19.533 16.924 19.039-16.434 19.533z"/><path d="M37.419 19.811l-3.434-3.956a1.87 1.87 0 00-1.227-.495c-.49 0-.736.248-.98.495-3.68 4.45-9.076 11.374-9.322 11.868-.49.495-.49 1.484 0 1.978.246.247.736.495.981.495.246 0 .736-.248.982-.495 0 0 .245-.247 8.34-10.384l2.207 2.472c.49.742 1.471.742 2.207.247.736-.742.736-1.73.246-2.225z"/></g></g><defs><filter id="filter0_dd" x="-.28" y="199.481" width="68.132" height="76.032" filterUnits="userSpaceOnUse" color-interpolation-filters="sRGB"><feFlood flood-opacity="0" result="BackgroundImageFix"/><feColorMatrix in="SourceAlpha" values="0 0 0 0 0 0 0 0 0 0 0 0 0 0 0 0 0 0 127 0" result="hardAlpha"/><feOffset dy="2"/><feGaussianBlur stdDeviation="7.5"/><feComposite in2="hardAlpha" operator="out"/><feColorMatrix values="0 0 0 0 0.219608 0 0 0 0 0.796078 0 0 0 0 0.129412 0 0 0 1 0"/><feBlend in2="BackgroundImageFix" result="effect1_dropShadow"/><feColorMatrix in="SourceAlpha" values="0 0 0 0 0 0 0 0 0 0 0 0 0 0 0 0 0 0 127 0" result="hardAlpha"/><feOffset dy="2"/><feGaussianBlur stdDeviation="5"/><feComposite in2="hardAlpha" operator="out"/><feColorMatrix values="0 0 0 0 0.219608 0 0 0 0 0.796078 0 0 0 0 0.129412 0 0 0 0.5 0"/><feBlend in2="effect1_dropShadow" result="effect2_dropShadow"/><feBlend in="SourceGraphic" in2="effect2_dropShadow" result="shape"/></filter><filter id="filter1_dd" x="-4.843" y="130.005" width="78.098" height="78.039" filterUnits="userSpaceOnUse" color-interpolation-filters="sRGB"><feFlood flood-opacity="0" result="BackgroundImageFix"/><feColorMatrix in="SourceAlpha" values="0 0 0 0 0 0 0 0 0 0 0 0 0 0 0 0 0 0 127 0" result="hardAlpha"/><feOffset dy="2"/><feGaussianBlur stdDeviation="7.5"/><feComposite in2="hardAlpha" operator="out"/><feColorMatrix values="0 0 0 0 0.988235 0 0 0 0 1 0 0 0 0 0 0 0 0 0.7 0"/><feBlend in2="BackgroundImageFix" result="effect1_dropShadow"/><feColorMatrix in="SourceAlpha" values="0 0 0 0 0 0 0 0 0 0 0 0 0 0 0 0 0 0 127 0" result="hardAlpha"/><feOffset dy="4"/><feGaussianBlur stdDeviation="7.5"/><feComposite in2="hardAlpha" operator="out"/><feColorMatrix values="0 0 0 0 0.988235 0 0 0 0 1 0 0 0 0 0.027451 0 0 0 0.5 0"/><feBlend in2="effect1_dropShadow" result="effect2_dropShadow"/><feBlend in="SourceGraphic" in2="effect2_dropShadow" result="shape"/></filter><filter id="filter2_dd" x="-6.631" y="267.306" width="78.098" height="76.039" filterUnits="userSpaceOnUse" color-interpolation-filters="sRGB"><feFlood flood-opacity="0" result="BackgroundImageFix"/><feColorMatrix in="SourceAlpha" values="0 0 0 0 0 0 0 0 0 0 0 0 0 0 0 0 0 0 127 0" result="hardAlpha"/><feOffset dy="2"/><feGaussianBlur stdDeviation="7.5"/><feComposite in2="hardAlpha" operator="out"/><feColorMatrix values="0 0 0 0 0.988235 0 0 0 0 1 0 0 0 0 0 0 0 0 0.7 0"/><feBlend in2="BackgroundImageFix" result="effect1_dropShadow"/><feColorMatrix in="SourceAlpha" values="0 0 0 0 0 0 0 0 0 0 0 0 0 0 0 0 0 0 127 0" result="hardAlpha"/><feOffset dy="4"/><feGaussianBlur stdDeviation="5"/><feComposite in2="hardAlpha" operator="out"/><feColorMatrix values="0 0 0 0 0.988235 0 0 0 0 1 0 0 0 0 0.027451 0 0 0 0.5 0"/><feBlend in2="effect1_dropShadow" result="effect2_dropShadow"/><feBlend in="SourceGraphic" in2="effect2_dropShadow" result="shape"/></filter><filter id="filter3_dd" x="-9.066" y="62.488" width="83.233" height="81" filterUnits="userSpaceOnUse" color-interpolation-filters="sRGB"><feFlood flood-opacity="0" result="BackgroundImageFix"/><feColorMatrix in="SourceAlpha" values="0 0 0 0 0 0 0 0 0 0 0 0 0 0 0 0 0 0 127 0" result="hardAlpha"/><feOffset dy="2"/><feGaussianBlur stdDeviation="10"/><feComposite in2="hardAlpha" operator="out"/><feColorMatrix values="0 0 0 0 0.0550868 0 0 0 0 0.419433 0 0 0 0 0.695833 0 0 0 0.7 0"/><feBlend in2="BackgroundImageFix" result="effect1_dropShadow"/><feColorMatrix in="SourceAlpha" values="0 0 0 0 0 0 0 0 0 0 0 0 0 0 0 0 0 0 127 0" result="hardAlpha"/><feOffset dy="4"/><feGaussianBlur stdDeviation="7.5"/><feComposite in2="hardAlpha" operator="out"/><feColorMatrix values="0 0 0 0 0 0 0 0 0 0.568627 0 0 0 0 1 0 0 0 0.5 0"/><feBlend in2="effect1_dropShadow" result="effect2_dropShadow"/><feBlend in="SourceGraphic" in2="effect2_dropShadow" result="shape"/></filter><filter id="filter4_dd" x="-1.619" y="-4.81" width="68.972" height="75" filterUnits="userSpaceOnUse" color-interpolation-filters="sRGB"><feFlood flood-opacity="0" result="BackgroundImageFix"/><feColorMatrix in="SourceAlpha" values="0 0 0 0 0 0 0 0 0 0 0 0 0 0 0 0 0 0 127 0" result="hardAlpha"/><feOffset dy="2"/><feGaussianBlur stdDeviation="7.5"/><feComposite in2="hardAlpha" operator="out"/><feColorMatrix values="0 0 0 0 0.9875 0 0 0 0 0.0781771 0 0 0 0 0.0781771 0 0 0 1 0"/><feBlend in2="BackgroundImageFix" result="effect1_dropShadow"/><feColorMatrix in="SourceAlpha" values="0 0 0 0 0 0 0 0 0 0 0 0 0 0 0 0 0 0 127 0" result="hardAlpha"/><feOffset dy="2"/><feGaussianBlur stdDeviation="5"/><feComposite in2="hardAlpha" operator="out"/><feColorMatrix values="0 0 0 0 0.796078 0 0 0 0 0.129412 0 0 0 0 0.129412 0 0 0 0.5 0"/><feBlend in2="effect1_dropShadow" result="effect2_dropShadow"/><feBlend in="SourceGraphic" in2="effect2_dropShadow" result="shape"/></filter><clipPath id="clip0"><path fill="#fff" d="M0 0h67v335H0z"/></clipPath></defs></svg>