<svg width="67" height="335" fill="none" xmlns="http://www.w3.org/2000/svg"><g clip-path="url(#clip0)"><g filter="url(#filter0_dd)" fill="#FAFF00"><path d="M24.583 300.561c-.747 0-1.493-.5-1.493-1.25s.498-1.5 1.244-1.75l4.725-.75 2.239-5.25c.248-.75 1.243-1.25 1.99-.75.745.5 1.243 1.5.745 2.25l-2.487 5.75c-.248.5-.497 1-1.243 1l-5.72.75c.248 0 .248 0 0 0z"/><path d="M19.36 323.311c-.25 0-.747 0-.995-.25-.498-.25-.746-1-.498-1.5l2.487-14.75-10.694-10.5c-.497-.25-.497-1-.497-1.5.248-.5.746-1 1.243-1l14.674-2.25 6.715-13.5c.248-.5.746-.75 1.492-.75.497 0 .995.25 1.244.75l6.715 13.5 14.673 2.25c.498 0 .995.5 1.244 1 .248.5 0 1.25-.498 1.5l-10.694 10.5 2.487 14.75c0 .5-.249 1.25-.497 1.5-.498.25-.995.5-1.493 0l-13.181-7-13.181 7c-.25.25-.498.25-.747.25zm-5.472-27l8.953 8.75c.25.25.498.75.498 1.25l-2.239 12.5 11.192-6c.497-.25.995-.25 1.492 0l11.192 6-2.238-12.5c0-.5 0-1 .497-1.25l8.953-8.75-12.435-1.75c-.497 0-.995-.5-1.243-.75l-5.223-11.5-5.72 11.5c-.249.25-.498.75-.995.75l-12.684 1.75z"/></g><g filter="url(#filter1_dd)"><path d="M39.08 248.932l-12.133-.22c-.662 0-1.103-.442-1.323-1.105 0-.442-1.545-8.175 2.205-15.023 2.427-4.198 3.971-6.186 5.074-7.733-.441-.221-1.103-.442-1.544-.442l-1.324-.663c-1.544-.662-1.985-.883-3.088-.22-.662.441-1.103 1.325-1.323 2.209-.442.884-1.103 2.43-2.427 2.209h-3.75c-.441 0-.662-.221-.882-.442a1.69 1.69 0 01-.442-1.104l.221-14.14c0-.663.662-1.326 1.324-1.326H24.3c.662 0 1.323.663 1.323 1.326v.221l1.324-.663c2.868-1.325 6.177-1.104 9.706.884 2.426 1.326 5.074-.884 5.294-.884.22-.221.441-.221.882-.221h4.192c.661 0 1.323.663 1.323 1.326-.22 9.942-.441 12.593-5.515 19.884-4.411 6.407-2.206 14.139-2.206 14.139.221.442 0 .884-.22 1.105-.441.663-.882.883-1.324.883zm-10.81-3.093l9.265.221c-.44-3.093-.882-9.279 2.868-14.802 4.632-6.407 4.853-8.616 5.074-17.232H43.05c-1.103.662-4.412 2.43-7.72.883-2.868-1.325-5.295-1.546-7.28-.663-1.985.884-2.647 1.989-2.647 2.21-.441.442-1.103.663-1.544.663-.662-.221-1.103-.884-1.103-1.326v-1.988H20.99l-.22 11.488h1.985c0-.221.22-.442.22-.663.442-1.104 1.103-2.43 2.648-3.314 2.205-1.325 3.97-.663 5.294 0 .44.221.882.221 1.323.442 1.324.442 3.088.442 3.75-.221.441-.442 1.324-.442 1.765.221.441.442.441 1.326 0 1.768-.441.662-1.103 1.325-1.544 1.767-1.324 1.546-3.089 3.314-5.956 8.395-2.427 4.64-2.206 9.942-1.985 12.151z" fill="#CB2121"/></g><g filter="url(#filter2_dd)"><path d="M35.581 169.625c-1.144 0-2.289-.231-3.433-.693a9.105 9.105 0 01-5.036-5.077 9.656 9.656 0 010-7.153c1.83-4.616 7.096-6.923 11.903-4.847 4.578 1.847 6.868 7.385 5.036 12a9.105 9.105 0 01-5.036 5.077c-1.144.462-2.289.693-3.434.693zm0-15.693c-2.518 0-4.807 1.616-5.951 3.923-.687 1.616-.687 3.231 0 4.847.686 1.615 1.83 2.769 3.433 3.461 1.603.692 3.205.692 4.808 0 1.602-.692 2.747-1.846 3.433-3.461 1.374-3.231-.229-6.923-3.433-8.308-.687-.231-1.603-.462-2.29-.462z" fill="#A600FF"/><path d="M39.701 154.625h-1.373c-.458 0-.687-.231-.916-.462-.458-.231-7.783-8.538-4.807-15.923.229-.461.458-.692.916-.923.457 0 .915 0 1.373.462l3.663 3.692 5.494-5.077c.458-.462 1.144-.462 1.602-.462.458.231.916.693.916 1.154l.229 8.077 5.952.231c.457 0 .915.231 1.144.692.23.462.23.923 0 1.385-2.747 6.461-10.988 7.154-14.193 7.154zm-.686-2.769c1.831 0 8.012 0 10.988-3.924l-4.808-.23c-.686 0-1.373-.693-1.373-1.385v-5.769l-4.35 3.923c-.457.461-1.373.461-1.83 0l-2.977-3c-.229 4.385 3.205 9 4.35 10.385z" fill="#38CB21"/><path d="M25.28 177.24c-1.145 0-2.29-.231-3.434-.692-.458-.231-.915-.462-1.144-.692-3.892-2.308-5.494-7.154-3.663-11.539 1.831-4.384 6.867-6.692 11.446-5.308.687.231 1.144 1.154.916 1.847-.23.692-1.145 1.153-1.832.923-3.205-1.154-6.638.461-8.012 3.692-1.144 3 0 6.231 2.518 7.846.23.231.458.231.916.462 2.06.923 4.35.461 6.18-.693.687-.461 1.603-.23 2.06.231.459.692.23 1.616-.228 2.077-2.06 1.154-3.892 1.846-5.723 1.846z" fill="#A600FF"/><path d="M37.412 182.317c-1.145 0-2.29-.231-3.434-.692a9.105 9.105 0 01-5.036-5.077 9.66 9.66 0 010-7.154c.458-.923.916-1.846 1.602-2.769.458-.462 1.374-.692 2.06 0 .459.461.688 1.384 0 2.077-.457.461-.686 1.154-1.144 1.846-.687 1.615-.687 3.231 0 4.846.687 1.615 1.831 2.769 3.434 3.462 1.602.692 3.205.692 4.807 0 1.603-.693 2.747-1.847 3.434-3.462 1.145-3 0-6.231-2.518-7.846-.687-.462-.916-1.154-.458-1.846.458-.693 1.145-.923 1.831-.462 3.892 2.308 5.494 7.154 3.663 11.539a9.108 9.108 0 01-5.036 5.077c-.687.23-2.06.461-3.205.461z" fill="#A600FF"/><path d="M28.485 186.933c-1.145 0-2.29-.231-3.434-.693a9.105 9.105 0 01-5.036-5.077 9.656 9.656 0 010-7.153c.229-.693 1.145-1.154 1.831-.693.687.231 1.145 1.154.687 1.846-.687 1.616-.687 3.231 0 4.847.687 1.615 1.831 2.769 3.434 3.461 1.602.923 3.433.923 4.807.231 1.602-.692 2.747-1.846 3.434-3.462.229-.692 1.144-1.154 1.831-.692.687.231 1.145 1.154.687 1.846a9.105 9.105 0 01-5.036 5.077c-.916.231-2.06.462-3.205.462zm16.482-14.539c-.687 0-1.374-.692-1.374-1.385 0-.692.687-1.384 1.374-1.384 2.518 0 4.807-1.616 5.723-3.923.687-1.616.687-3.231 0-4.846-.687-1.616-1.831-2.77-3.434-3.462a6.368 6.368 0 00-5.036 0c-.687.231-1.602 0-1.831-.692-.23-.693 0-1.616.686-1.846a9.44 9.44 0 017.097 0 9.105 9.105 0 015.036 5.077 9.657 9.657 0 010 7.153c-1.145 3-4.35 5.308-8.241 5.308zm-23.579-9.692c-.458 0-.686-.231-.915-.462-2.518-2.769-3.434-6.692-2.06-10.154a9.111 9.111 0 015.036-5.077 9.44 9.44 0 017.096 0c2.06 1.154 3.892 2.77 4.807 5.077.23.693 0 1.616-.687 1.847-.686.23-1.602 0-1.83-.693-.688-1.615-1.832-2.769-3.435-3.461-3.204-1.385-6.867.23-8.24 3.461-.916 2.308-.458 5.077 1.373 6.923.458.462.458 1.385 0 2.077-.458.231-.687.462-1.145.462zm11.675-2.077h-.458c-.687-.231-1.144-.923-.916-1.846 0-.231.687-1.846 2.29-2.539.686-.461 2.06-.692 3.662 0 .687.462 1.145 1.154.687 1.846-.229.924-1.145 1.154-1.831.924-.458-.231-1.145-.462-1.374-.231-.458.231-.687.923-.687.923-.228.692-.915.923-1.373.923zm-9.614 10.615c-.23 0-.687 0-.916-.231-.229-.23-1.602-1.153-1.602-3 0-.923 0-2.076 1.373-3.461.458-.462 1.374-.692 2.06 0 .458.461.687 1.385 0 2.077-.457.461-.686.923-.686 1.384 0 .462.686.924.686.924.687.461.687 1.384.23 2.076-.23 0-.687.231-1.145.231z" fill="#A600FF"/><path d="M38.328 154.625c-.687 0-1.374-.462-1.374-1.385 0-.231-.229-3.923 2.747-7.384.458-.693 1.374-.693 2.06 0 .458.461.687 1.384 0 2.076-2.289 2.539-2.06 5.077-2.06 5.077 0 .923-.458 1.616-1.373 1.616z" fill="#38CB21"/></g><g filter="url(#filter3_dd)"><path d="M45.277 108.587H21.34c-.652 0-1.305-.673-1.305-1.347v-6.959l-3.917-10.775c-2.177.224-4.135-1.796-4.135-4.041s1.74-4.265 4.135-4.265c2.393 0 4.134 1.796 4.134 4.265 0 .449 0 .898-.217 1.122l8.052 6.062 2.393-9.204c-1.305-.898-1.958-2.245-1.958-3.592 0-2.245 1.74-4.266 4.135-4.266 2.176 0 4.134 1.796 4.134 4.266 0 1.347-.653 2.694-1.74 3.367l2.828 9.429 8.052-6.062c-.218-.449-.218-.898-.218-1.347 0-2.244 1.741-4.265 4.135-4.265 2.394 0 4.135 1.796 4.135 4.266 0 2.244-1.741 4.265-4.135 4.265l-3.264 10.775v7.184c0 .673-.653 1.122-1.306 1.122zm-22.632-2.693h21.109v-6.287l3.482-10.55-9.358 6.959c-.435.224-.87.224-1.305.224-.218-.224-.653-.448-.653-.897l-3.047-10.327-2.611 10.326c-.218.45-.436.674-.87.898-.436.225-.871 0-1.306-.224l-9.14-6.96 3.7 10.327v6.511zm26.332-19.307h.87c.87 0 1.523-.673 1.523-1.571 0-.898-.652-1.572-1.523-1.572-.87 0-1.523.674-1.523 1.572 0 .224 0 .449.218.898.217.449.435.673.435.673zm-32.86-2.694c-.87 0-1.524.674-1.524 1.572 0 .673.653 1.347 1.524 1.347h.87c0-.225.218-.225.218-.45.217-.224.217-.673.217-.897.218-.898-.435-1.572-1.305-1.572zm16.539-5.612c-.871 0-1.524.674-1.524 1.572 0 .673.653 1.347 1.088 1.347.218 0 .218 0 .436.224.217 0 .217-.224.435-.224.435-.225 1.088-.674 1.088-1.347 0-.898-.653-1.572-1.523-1.572z" fill="#FAFF00"/></g><g filter="url(#filter4_dd)" fill="#CB2121"><path d="M52.214 18.403c-1.621-3.238-4.633-5.55-8.339-6.013-.927-.232-1.853-.232-2.78-.232-4.633 0-6.949 2.082-8.339 3.932-1.39-1.619-3.706-3.7-8.107-3.7-.927 0-1.853 0-2.78.23-3.706.695-6.717 2.776-8.339 6.246-1.853 3.7-1.621 8.326.695 12.258 2.085 3.7 6.718 6.939 11.35 10.408 1.854 1.388 3.938 2.776 5.56 4.164.463.462 1.158.694 1.853.694.695 0 1.39-.232 1.853-.694l5.56-4.164c4.632-3.469 9.265-6.938 11.118-10.64 2.316-4.162 2.548-8.557.695-12.489zm-3.011 11.102c-2.548 4.626-9.96 9.02-15.983 13.878-6.255-4.857-13.899-9.252-16.447-13.647-3.706-6.245-.463-13.415 5.56-14.34.926-.231 1.621-.231 2.316-.231 6.023 0 6.717 4.857 8.339 4.857 1.39 0 2.085-5.088 8.339-5.088.695 0 1.39 0 2.085.231 6.022.925 9.265 7.864 5.79 14.34z"/><path d="M24.186 17.478c-2.085 0-3.938.694-5.097 2.082-1.39 1.619-1.853 3.7-1.39 6.245.232.693.695 1.156 1.39 1.156h.232c.927-.231 1.39-.925 1.158-1.85-.231-1.388 0-2.776.695-3.701a3.839 3.839 0 012.78-1.157h.232c.694 0 1.39-.693 1.39-1.387 0-.694-.696-1.388-1.39-1.388z"/></g></g><defs><filter id="filter0_dd" x="-5.837" y="264.311" width="78.098" height="78.039" filterUnits="userSpaceOnUse" color-interpolation-filters="sRGB"><feFlood flood-opacity="0" result="BackgroundImageFix"/><feColorMatrix in="SourceAlpha" values="0 0 0 0 0 0 0 0 0 0 0 0 0 0 0 0 0 0 127 0" result="hardAlpha"/><feOffset dy="2"/><feGaussianBlur stdDeviation="7.5"/><feComposite in2="hardAlpha" operator="out"/><feColorMatrix values="0 0 0 0 0.988235 0 0 0 0 1 0 0 0 0 0 0 0 0 0.7 0"/><feBlend in2="BackgroundImageFix" result="effect1_dropShadow"/><feColorMatrix in="SourceAlpha" values="0 0 0 0 0 0 0 0 0 0 0 0 0 0 0 0 0 0 127 0" result="hardAlpha"/><feOffset dy="4"/><feGaussianBlur stdDeviation="7.5"/><feComposite in2="hardAlpha" operator="out"/><feColorMatrix values="0 0 0 0 0.988235 0 0 0 0 1 0 0 0 0 0.027451 0 0 0 0.5 0"/><feBlend in2="effect1_dropShadow" result="effect2_dropShadow"/><feBlend in="SourceGraphic" in2="effect2_dropShadow" result="shape"/></filter><filter id="filter1_dd" x="-1.876" y="194.932" width="70.221" height="78" filterUnits="userSpaceOnUse" color-interpolation-filters="sRGB"><feFlood flood-opacity="0" result="BackgroundImageFix"/><feColorMatrix in="SourceAlpha" values="0 0 0 0 0 0 0 0 0 0 0 0 0 0 0 0 0 0 127 0" result="hardAlpha"/><feOffset dy="4"/><feGaussianBlur stdDeviation="10"/><feComposite in2="hardAlpha" operator="out"/><feColorMatrix values="0 0 0 0 0.796078 0 0 0 0 0.129412 0 0 0 0 0.129412 0 0 0 0.8 0"/><feBlend in2="BackgroundImageFix" result="effect1_dropShadow"/><feColorMatrix in="SourceAlpha" values="0 0 0 0 0 0 0 0 0 0 0 0 0 0 0 0 0 0 127 0" result="hardAlpha"/><feOffset dy="2"/><feGaussianBlur stdDeviation="7.5"/><feComposite in2="hardAlpha" operator="out"/><feColorMatrix values="0 0 0 0 0.796078 0 0 0 0 0.129412 0 0 0 0 0.129412 0 0 0 0.5 0"/><feBlend in2="effect1_dropShadow" result="effect2_dropShadow"/><feBlend in="SourceGraphic" in2="effect2_dropShadow" result="shape"/></filter><filter id="filter2_dd" x="-3.717" y="117.932" width="77.783" height="91" filterUnits="userSpaceOnUse" color-interpolation-filters="sRGB"><feFlood flood-opacity="0" result="BackgroundImageFix"/><feColorMatrix in="SourceAlpha" values="0 0 0 0 0 0 0 0 0 0 0 0 0 0 0 0 0 0 127 0" result="hardAlpha"/><feOffset dy="2"/><feGaussianBlur stdDeviation="10"/><feComposite in2="hardAlpha" operator="out"/><feColorMatrix values="0 0 0 0 0.65098 0 0 0 0 0 0 0 0 0 1 0 0 0 0.8 0"/><feBlend in2="BackgroundImageFix" result="effect1_dropShadow"/><feColorMatrix in="SourceAlpha" values="0 0 0 0 0 0 0 0 0 0 0 0 0 0 0 0 0 0 127 0" result="hardAlpha"/><feOffset dy="2"/><feGaussianBlur stdDeviation="7.5"/><feComposite in2="hardAlpha" operator="out"/><feColorMatrix values="0 0 0 0 0.65098 0 0 0 0 0 0 0 0 0 1 0 0 0 0.5 0"/><feBlend in2="effect1_dropShadow" result="effect2_dropShadow"/><feBlend in="SourceGraphic" in2="effect2_dropShadow" result="shape"/></filter><filter id="filter3_dd" x="-8.018" y="57.587" width="82" height="73" filterUnits="userSpaceOnUse" color-interpolation-filters="sRGB"><feFlood flood-opacity="0" result="BackgroundImageFix"/><feColorMatrix in="SourceAlpha" values="0 0 0 0 0 0 0 0 0 0 0 0 0 0 0 0 0 0 127 0" result="hardAlpha"/><feOffset dy="2"/><feGaussianBlur stdDeviation="10"/><feComposite in2="hardAlpha" operator="out"/><feColorMatrix values="0 0 0 0 0.988235 0 0 0 0 1 0 0 0 0 0.027451 0 0 0 0.8 0"/><feBlend in2="BackgroundImageFix" result="effect1_dropShadow"/><feColorMatrix in="SourceAlpha" values="0 0 0 0 0 0 0 0 0 0 0 0 0 0 0 0 0 0 127 0" result="hardAlpha"/><feOffset dy="2"/><feGaussianBlur stdDeviation="7.5"/><feComposite in2="hardAlpha" operator="out"/><feColorMatrix values="0 0 0 0 0.980392 0 0 0 0 1 0 0 0 0 0 0 0 0 0.5 0"/><feBlend in2="effect1_dropShadow" result="effect2_dropShadow"/><feBlend in="SourceGraphic" in2="effect2_dropShadow" result="shape"/></filter><filter id="filter4_dd" x="-7.705" y="-5.842" width="81.154" height="74.231" filterUnits="userSpaceOnUse" color-interpolation-filters="sRGB"><feFlood flood-opacity="0" result="BackgroundImageFix"/><feColorMatrix in="SourceAlpha" values="0 0 0 0 0 0 0 0 0 0 0 0 0 0 0 0 0 0 127 0" result="hardAlpha"/><feOffset dy="2"/><feGaussianBlur stdDeviation="10"/><feComposite in2="hardAlpha" operator="out"/><feColorMatrix values="0 0 0 0 0.796078 0 0 0 0 0.129412 0 0 0 0 0.129412 0 0 0 0.8 0"/><feBlend in2="BackgroundImageFix" result="effect1_dropShadow"/><feColorMatrix in="SourceAlpha" values="0 0 0 0 0 0 0 0 0 0 0 0 0 0 0 0 0 0 127 0" result="hardAlpha"/><feOffset dy="2"/><feGaussianBlur stdDeviation="5"/><feComposite in2="hardAlpha" operator="out"/><feColorMatrix values="0 0 0 0 0.796078 0 0 0 0 0.129412 0 0 0 0 0.129412 0 0 0 0.5 0"/><feBlend in2="effect1_dropShadow" result="effect2_dropShadow"/><feBlend in="SourceGraphic" in2="effect2_dropShadow" result="shape"/></filter><clipPath id="clip0"><path fill="#fff" d="M0 0h67v335H0z"/></clipPath></defs></svg>