<svg width="68" height="335" fill="none" xmlns="http://www.w3.org/2000/svg"><g clip-path="url(#clip0)"><g filter="url(#filter0_dd)" fill="#38CB21"><path d="M37.803 304.109h-4.691c-.47 0-.704-.229-.938-.458-.235-.229-.47-.458-.47-.915v-1.831c0-3.891 0-8.01.939-10.756.938-2.518 3.05-4.577 5.395-5.493 1.877-.686 3.518-.458 5.16.229 2.58 1.373 2.815 3.662 3.05 4.806v.229h.234c1.173.229 3.519.458 4.926 2.746.939 1.373.939 3.204.47 5.035-.704 2.288-2.815 4.348-5.396 5.492-2.345.916-5.395.916-8.679.916zm-3.049-2.746h3.284c2.815 0 5.63 0 7.506-.687 1.877-.687 3.284-2.06 3.753-3.662.235-1.144.235-2.059-.234-2.746-.704-1.144-1.642-1.373-2.815-1.373-.704 0-1.408-.229-2.111-.687-.47-.457-.704-1.144-.704-1.83-.235-.916-.235-2.06-1.642-2.747-.704-.457-1.642-.457-2.815 0-1.407.229-2.815 1.602-3.518 3.433-.939 2.289-.939 5.95-.939 9.612l.235.687c-.235 0 0 0 0 0z"/><path d="M25.84 321.044c-.938 0-1.876-.229-2.58-.458-3.049-1.144-3.049-3.661-3.283-5.034v-.229h-.235c-1.173 0-3.753-.229-5.16-2.975-.704-1.602-.704-3.662 0-5.493.938-2.06 2.814-3.89 5.16-4.806 2.815-.686 6.333-.686 10.086-.686h3.284c.47 0 .704.228.939.457.234.229.469.687.469.916v2.746c0 3.89.234 7.323-.939 10.07-.938 2.288-2.58 4.119-4.925 5.034a8.94 8.94 0 01-2.815.458zm-8.21-9.612c.47 1.144 1.408 1.373 2.581 1.373.704 0 1.642 0 2.111.687.47.458.704 1.373.704 2.06 0 1.373.235 2.059 1.407 2.517.939.458 2.111.458 3.284 0a6.803 6.803 0 003.284-3.433c.704-2.06.704-5.492.704-8.925v-1.373h-1.877c-3.284 0-6.802 0-8.679.686-1.642.687-3.049 1.831-3.518 3.204-.47.916-.47 2.289 0 3.204z"/><path d="M40.618 321.044c-.938 0-1.876-.229-2.58-.458-2.346-.915-3.988-2.746-5.16-5.034-1.173-2.747-1.173-6.179-1.173-10.07v-2.746c0-.458.234-.687.469-.916.234-.229.469-.457.938-.457h3.284c3.753-.229 7.272-.229 9.617.686 2.58.916 4.457 2.746 5.395 5.035.704 1.831.704 3.662 0 5.264-1.172 2.517-3.753 2.746-4.926 2.975h-.234v.229c0 1.144-.235 3.661-3.05 5.034-.703.229-1.642.458-2.58.458zm-6.099-16.935v1.373c0 3.204 0 6.637.939 8.697.703 1.602 1.876 2.975 3.518 3.661 1.173.458 2.346.458 3.284 0 1.173-.457 1.408-1.373 1.408-2.517 0-.687 0-1.602.703-2.06.47-.458 1.408-.686 2.111-.686 1.173-.229 2.111-.229 2.815-1.374.47-.915.47-1.83 0-2.975-.703-1.602-1.876-2.746-3.753-3.433-1.876-.686-5.395-.686-8.444-.457-1.173-.229-1.877-.229-2.58-.229z"/><path d="M28.656 304.109c-3.05 0-5.865-.229-7.976-.916-2.58-.915-4.691-2.746-5.395-5.034-.938-1.831-.938-3.662 0-5.264 1.408-2.746 3.753-2.975 4.926-2.975 0-1.144.235-3.662 3.05-5.035 1.642-.915 3.518-.915 5.395-.229 2.345.916 4.222 2.746 5.395 5.264.938 2.288.938 5.492.703 8.925v3.891c0 .457-.234.686-.469.915-.469.229-.703.458-1.173.458h-4.456zm-3.988-16.707c-1.407.687-1.407 1.602-1.407 2.518 0 .686 0 1.373-.704 2.06-.704.686-1.408.686-2.111.686-1.173 0-2.111.229-2.815 1.602-.47.916-.47 1.831 0 2.975.704 1.602 2.111 2.746 3.753 3.433 2.346.915 5.864.687 9.383.687h.703v-2.747c0-2.975.235-5.95-.469-7.781-.469-1.602-1.876-2.975-3.284-3.661-1.172-.229-2.11-.229-3.049.228zm5.395 42.797c-.235 0-.704-.229-.938-.458-.704-.458-.704-1.373-.235-2.06 3.988-4.577 2.815-13.045 2.815-13.045 0-.686.703-1.373 1.407-1.373.704 0 1.408.458 1.642 1.144 0 .458 1.408 9.841-3.518 15.334-.235.229-.704.458-1.173.458z"/></g><g filter="url(#filter1_dd)" fill="#FAFF00"><path d="M24.91 236.515c-.745 0-1.491-.5-1.491-1.25s.497-1.5 1.243-1.75l4.725-.75 2.239-5.25c.248-.75 1.243-1.25 1.99-.75.745.5 1.243 1.5.745 2.25l-2.487 5.75c-.248.5-.497 1-1.243 1l-5.72.75c.248 0 .248 0 0 0z"/><path d="M19.688 259.265c-.25 0-.746 0-.995-.25-.498-.25-.746-1-.498-1.5l2.487-14.75-10.694-10.5c-.497-.25-.497-1-.497-1.5.248-.5.746-1 1.243-1l14.674-2.25 6.715-13.5c.249-.5.746-.75 1.492-.75.497 0 .995.25 1.244.75l6.715 13.5 14.673 2.25c.498 0 .995.5 1.244 1 .248.5 0 1.25-.498 1.5l-10.694 10.5 2.487 14.75c0 .5-.249 1.25-.497 1.5-.498.25-.995.5-1.493 0l-13.18-7-13.182 7c-.249.25-.498.25-.746.25zm-5.472-27l8.954 8.75c.248.25.497.75.497 1.25l-2.239 12.5 11.192-6c.498-.25.995-.25 1.492 0l11.192 6-2.238-12.5c0-.5 0-1 .497-1.25l8.954-8.75-12.436-1.75c-.497 0-.994-.5-1.243-.75l-5.223-11.5-5.72 11.5c-.249.25-.497.75-.995.75l-12.684 1.75z"/></g><g filter="url(#filter2_dd)" fill="#0091FF"><path d="M42.18 160.076c0-1.178.935-2.356 2.338-2.356h6.076c1.402 0 2.337.235 3.038.707.7.471 1.168 1.178 1.402 1.885.234.942.467 1.885.467 3.298 0 1.179-.233 2.121-.7 2.828-.468.707-1.17 1.178-2.104 1.414.701.235 1.402.471 1.87.942.467.472.467 1.178.467 2.121v5.655c0 1.414-.468 2.357-1.87 2.357-1.402 0-1.87-1.414-1.87-2.357v-5.891c0-.471-.467-1.413-1.401-1.413h-3.74v7.069c0 1.649-.7 2.356-1.87 2.356-1.168 0-1.869-1.178-1.869-2.356v-16.259h-.233zm8.414 5.655c.7 0 1.168-1.178 1.168-2.356 0-.943-.467-1.885-1.168-1.885h-4.44v4.477h4.44v-.236zm-38.326-5.655c0-1.178.935-2.121 2.103-2.121h3.74c1.869 0 3.271.471 4.206 1.178.935.707 1.402 1.885 1.402 3.535v.942c0 1.885-.234 2.828-1.168 3.535 1.168.235 1.87.707 2.337 1.649.233.707.467 1.885.467 3.299 0 2.121-.467 4.006-1.169 4.948-.934 1.179-2.336 1.65-4.673 1.65H14.37c-1.168.235-2.103-.707-2.103-1.885v-16.73zm6.31 5.655c.935 0 1.168-.942 1.168-1.414v-2.12c0-.707-.467-.943-1.168-.943h-2.57v4.713h2.57v-.236zm2.804 7.776v-2.592c0-.707-.467-1.885-1.636-1.885h-3.739v6.126h3.272c1.402 0 2.103-.471 2.103-1.649zm5.375 3.299c.234-.943 2.103-17.201 2.103-17.201 0-.943.935-1.65 2.104-1.65h5.375c1.168 0 1.87.707 2.103 1.885 0 0 1.87 16.023 2.103 16.966.234.942-.467 2.12-1.87 2.12-1.401 0-2.103-1.178-2.103-2.12 0-.943-.233-1.178-.233-1.178h-5.375s0 .235-.234 1.413c0 1.179-.935 1.885-2.337 1.885-1.168 0-1.87-.942-1.636-2.12zm4.44-4.713h4.674l-.934-10.603H32.6l-1.403 10.603zm-9.815-15.552c-.467 0-.935-.235-1.402-.706-.467-.707-.467-1.886.234-2.357 3.739-3.299 8.413-5.184 13.554-5.184 4.908 0 9.582 1.65 13.087 4.949.701.706.935 1.649.234 2.592-.701.706-1.636.942-2.57.235-6.077-5.419-15.892-5.419-21.968 0a1.776 1.776 0 01-1.169.471zm12.386 32.753c-4.907 0-9.581-1.885-13.32-5.184-.701-.706-.701-1.649-.234-2.592.701-.706 1.636-.706 2.57-.235 6.31 5.419 16.126 5.419 22.202-.236.7-.707 1.87-.707 2.57.236.701.707.468 1.885-.233 2.592-3.74 3.534-8.647 5.419-13.555 5.419z"/></g><g filter="url(#filter3_dd)" fill="#CB2121"><path d="M54.094 99.472l-16.68-19.286c-.735-.494-1.471-.989-2.452-.989-.736 0-1.717.495-2.208.99l-16.189 19.78c-.98 1.236-.98 2.719 0 3.956l16.68 19.285c.736.495 1.471.989 2.207.989.981 0 1.717-.494 2.208-.989l16.189-19.533c1.226-1.483 1.226-3.214.245-4.203zm-18.642 21.511l-16.679-19.038 16.189-19.533 16.924 19.038-16.434 19.533z"/><path d="M39.867 90.818l-3.434-3.956c-.245-.247-.736-.494-1.227-.494-.49 0-.735.247-.98.494-3.68 4.45-9.076 11.374-9.322 11.868-.49.495-.49 1.484 0 1.978.246.248.736.495.982.495.245 0 .736-.247.98-.495 0 0 .246-.247 8.34-10.384l2.208 2.472c.49.742 1.472.742 2.207.247.736-.741.736-1.73.246-2.225z"/></g><g filter="url(#filter4_dd)" fill="#FAFF00"><path d="M24.91 28.052c-.745 0-1.491-.5-1.491-1.25s.497-1.5 1.243-1.75l4.725-.75 2.239-5.25c.248-.75 1.243-1.25 1.99-.75.745.5 1.243 1.5.745 2.25l-2.487 5.75c-.248.5-.497 1-1.243 1l-5.72.75c.248 0 .248 0 0 0z"/><path d="M19.688 50.801c-.25 0-.746 0-.995-.25-.498-.25-.746-1-.498-1.5l2.487-14.75-10.694-10.5c-.497-.25-.497-1-.497-1.5.248-.5.746-1 1.243-1l14.674-2.25 6.715-13.5c.249-.5.746-.75 1.492-.75.497 0 .995.25 1.244.75l6.715 13.5 14.673 2.25c.498 0 .995.5 1.244 1 .248.5 0 1.25-.498 1.5L46.3 34.302l2.487 14.75c0 .5-.249 1.25-.497 1.5-.498.25-.995.5-1.493 0l-13.18-7-13.182 7c-.249.25-.498.25-.746.25zm-5.472-27l8.954 8.75c.248.25.497.75.497 1.25l-2.239 12.5 11.192-6c.498-.25.995-.25 1.492 0l11.192 6-2.238-12.5c0-.5 0-1 .497-1.25l8.954-8.75-12.436-1.75c-.497 0-.994-.5-1.243-.75l-5.223-11.5-5.72 11.5c-.249.25-.497.75-.995.75l-12.684 1.75z"/></g></g><defs><filter id="filter0_dd" x="-.946" y="271.167" width="68.132" height="76.032" filterUnits="userSpaceOnUse" color-interpolation-filters="sRGB"><feFlood flood-opacity="0" result="BackgroundImageFix"/><feColorMatrix in="SourceAlpha" values="0 0 0 0 0 0 0 0 0 0 0 0 0 0 0 0 0 0 127 0" result="hardAlpha"/><feOffset dy="2"/><feGaussianBlur stdDeviation="7.5"/><feComposite in2="hardAlpha" operator="out"/><feColorMatrix values="0 0 0 0 0.219608 0 0 0 0 0.796078 0 0 0 0 0.129412 0 0 0 1 0"/><feBlend in2="BackgroundImageFix" result="effect1_dropShadow"/><feColorMatrix in="SourceAlpha" values="0 0 0 0 0 0 0 0 0 0 0 0 0 0 0 0 0 0 127 0" result="hardAlpha"/><feOffset dy="2"/><feGaussianBlur stdDeviation="5"/><feComposite in2="hardAlpha" operator="out"/><feColorMatrix values="0 0 0 0 0.219608 0 0 0 0 0.796078 0 0 0 0 0.129412 0 0 0 0.5 0"/><feBlend in2="effect1_dropShadow" result="effect2_dropShadow"/><feBlend in="SourceGraphic" in2="effect2_dropShadow" result="shape"/></filter><filter id="filter1_dd" x="-5.509" y="200.265" width="78.098" height="78.039" filterUnits="userSpaceOnUse" color-interpolation-filters="sRGB"><feFlood flood-opacity="0" result="BackgroundImageFix"/><feColorMatrix in="SourceAlpha" values="0 0 0 0 0 0 0 0 0 0 0 0 0 0 0 0 0 0 127 0" result="hardAlpha"/><feOffset dy="2"/><feGaussianBlur stdDeviation="7.5"/><feComposite in2="hardAlpha" operator="out"/><feColorMatrix values="0 0 0 0 0.988235 0 0 0 0 1 0 0 0 0 0 0 0 0 0.7 0"/><feBlend in2="BackgroundImageFix" result="effect1_dropShadow"/><feColorMatrix in="SourceAlpha" values="0 0 0 0 0 0 0 0 0 0 0 0 0 0 0 0 0 0 127 0" result="hardAlpha"/><feOffset dy="4"/><feGaussianBlur stdDeviation="7.5"/><feComposite in2="hardAlpha" operator="out"/><feColorMatrix values="0 0 0 0 0.988235 0 0 0 0 1 0 0 0 0 0.027451 0 0 0 0.5 0"/><feBlend in2="effect1_dropShadow" result="effect2_dropShadow"/><feBlend in="SourceGraphic" in2="effect2_dropShadow" result="shape"/></filter><filter id="filter2_dd" x="-7.732" y="130.294" width="83.233" height="81" filterUnits="userSpaceOnUse" color-interpolation-filters="sRGB"><feFlood flood-opacity="0" result="BackgroundImageFix"/><feColorMatrix in="SourceAlpha" values="0 0 0 0 0 0 0 0 0 0 0 0 0 0 0 0 0 0 127 0" result="hardAlpha"/><feOffset dy="2"/><feGaussianBlur stdDeviation="10"/><feComposite in2="hardAlpha" operator="out"/><feColorMatrix values="0 0 0 0 0.0550868 0 0 0 0 0.419433 0 0 0 0 0.695833 0 0 0 0.7 0"/><feBlend in2="BackgroundImageFix" result="effect1_dropShadow"/><feColorMatrix in="SourceAlpha" values="0 0 0 0 0 0 0 0 0 0 0 0 0 0 0 0 0 0 127 0" result="hardAlpha"/><feOffset dy="4"/><feGaussianBlur stdDeviation="7.5"/><feComposite in2="hardAlpha" operator="out"/><feColorMatrix values="0 0 0 0 0 0 0 0 0 0.568627 0 0 0 0 1 0 0 0 0.5 0"/><feBlend in2="effect1_dropShadow" result="effect2_dropShadow"/><feBlend in="SourceGraphic" in2="effect2_dropShadow" result="shape"/></filter><filter id="filter3_dd" x=".83" y="66.197" width="68.972" height="75" filterUnits="userSpaceOnUse" color-interpolation-filters="sRGB"><feFlood flood-opacity="0" result="BackgroundImageFix"/><feColorMatrix in="SourceAlpha" values="0 0 0 0 0 0 0 0 0 0 0 0 0 0 0 0 0 0 127 0" result="hardAlpha"/><feOffset dy="2"/><feGaussianBlur stdDeviation="7.5"/><feComposite in2="hardAlpha" operator="out"/><feColorMatrix values="0 0 0 0 0.9875 0 0 0 0 0.0781771 0 0 0 0 0.0781771 0 0 0 1 0"/><feBlend in2="BackgroundImageFix" result="effect1_dropShadow"/><feColorMatrix in="SourceAlpha" values="0 0 0 0 0 0 0 0 0 0 0 0 0 0 0 0 0 0 127 0" result="hardAlpha"/><feOffset dy="2"/><feGaussianBlur stdDeviation="5"/><feComposite in2="hardAlpha" operator="out"/><feColorMatrix values="0 0 0 0 0.796078 0 0 0 0 0.129412 0 0 0 0 0.129412 0 0 0 0.5 0"/><feBlend in2="effect1_dropShadow" result="effect2_dropShadow"/><feBlend in="SourceGraphic" in2="effect2_dropShadow" result="shape"/></filter><filter id="filter4_dd" x="-5.509" y="-8.198" width="78.098" height="78.039" filterUnits="userSpaceOnUse" color-interpolation-filters="sRGB"><feFlood flood-opacity="0" result="BackgroundImageFix"/><feColorMatrix in="SourceAlpha" values="0 0 0 0 0 0 0 0 0 0 0 0 0 0 0 0 0 0 127 0" result="hardAlpha"/><feOffset dy="2"/><feGaussianBlur stdDeviation="7.5"/><feComposite in2="hardAlpha" operator="out"/><feColorMatrix values="0 0 0 0 0.988235 0 0 0 0 1 0 0 0 0 0 0 0 0 0.7 0"/><feBlend in2="BackgroundImageFix" result="effect1_dropShadow"/><feColorMatrix in="SourceAlpha" values="0 0 0 0 0 0 0 0 0 0 0 0 0 0 0 0 0 0 127 0" result="hardAlpha"/><feOffset dy="4"/><feGaussianBlur stdDeviation="7.5"/><feComposite in2="hardAlpha" operator="out"/><feColorMatrix values="0 0 0 0 0.988235 0 0 0 0 1 0 0 0 0 0.027451 0 0 0 0.5 0"/><feBlend in2="effect1_dropShadow" result="effect2_dropShadow"/><feBlend in="SourceGraphic" in2="effect2_dropShadow" result="shape"/></filter><clipPath id="clip0"><path fill="#fff" transform="translate(.1)" d="M0 0h67v335H0z"/></clipPath></defs></svg>