<svg width="67" height="335" fill="none" xmlns="http://www.w3.org/2000/svg"><g clip-path="url(#clip0)"><g filter="url(#filter0_dd)" fill="#38CB21"><path d="M37.579 233.973h-4.692c-.469 0-.703-.229-.938-.458s-.469-.458-.469-.916v-1.83c0-3.891 0-8.01.938-10.757.938-2.517 3.05-4.577 5.395-5.492 1.877-.687 3.519-.458 5.16.229 2.581 1.373 2.816 3.661 3.05 4.806v.229h.235c1.173.228 3.518.457 4.926 2.746.938 1.373.938 3.204.469 5.035-.704 2.288-2.815 4.348-5.395 5.492-2.346.916-5.395.916-8.68.916zm-3.05-2.747h3.284c2.815 0 5.63 0 7.506-.686 1.877-.687 3.284-2.06 3.754-3.662.234-1.144.234-2.06-.235-2.746-.704-1.144-1.642-1.373-2.815-1.373-.704 0-1.407-.229-2.11-.687-.47-.458-.705-1.144-.705-1.831-.234-.915-.234-2.059-1.642-2.746-.703-.458-1.642-.458-2.814 0-1.408.229-2.815 1.602-3.519 3.433-.938 2.288-.938 5.95-.938 9.612l.234.686c-.234 0 0 0 0 0z"/><path d="M25.616 250.908c-.938 0-1.876-.229-2.58-.458-3.05-1.144-3.05-3.661-3.284-5.035v-.228h-.235c-1.172 0-3.753-.229-5.16-2.976-.704-1.602-.704-3.661 0-5.492.938-2.06 2.815-3.891 5.16-4.806 2.815-.687 6.334-.687 10.087-.687h3.284c.469 0 .703.229.938.458s.47.687.47.915v2.747c0 3.89.234 7.323-.94 10.069-.937 2.289-2.58 4.12-4.925 5.035a8.94 8.94 0 01-2.815.458zm-8.21-9.612c.47 1.144 1.408 1.373 2.58 1.373.704 0 1.642 0 2.112.687.469.457.703 1.373.703 2.059 0 1.374.235 2.06 1.408 2.518.938.457 2.11.457 3.284 0a6.803 6.803 0 003.284-3.433c.703-2.06.703-5.493.703-8.925v-1.374h-1.876c-3.284 0-6.803 0-8.68.687-1.641.687-3.049 1.831-3.518 3.204-.469.915-.469 2.289 0 3.204z"/><path d="M40.394 250.908c-.939 0-1.877-.229-2.58-.458-2.346-.915-3.988-2.746-5.161-5.035-1.173-2.746-1.173-6.179-1.173-10.069V232.6c0-.458.235-.687.47-.916.234-.229.468-.458.937-.458h3.284c3.753-.228 7.272-.228 9.618.687 2.58.915 4.456 2.746 5.395 5.035.703 1.831.703 3.661 0 5.263-1.173 2.518-3.753 2.747-4.926 2.976h-.235v.228c0 1.145-.234 3.662-3.05 5.035-.703.229-1.641.458-2.58.458zm-6.1-16.935v1.373c0 3.204 0 6.637.94 8.696.703 1.602 1.876 2.975 3.518 3.662 1.172.458 2.345.458 3.283 0 1.173-.458 1.408-1.373 1.408-2.517 0-.687 0-1.602.704-2.06.469-.458 1.407-.687 2.11-.687 1.174-.229 2.112-.229 2.816-1.373.469-.915.469-1.831 0-2.975-.704-1.602-1.877-2.746-3.754-3.433-1.876-.686-5.395-.686-8.444-.457-1.173-.229-1.877-.229-2.58-.229z"/><path d="M28.431 233.973c-3.05 0-5.864-.229-7.975-.916-2.58-.915-4.692-2.746-5.395-5.035-.939-1.83-.939-3.661 0-5.263 1.407-2.747 3.753-2.975 4.926-2.975 0-1.145.234-3.662 3.049-5.035 1.642-.916 3.518-.916 5.395-.229 2.346.915 4.222 2.746 5.395 5.264.938 2.288.938 5.492.704 8.925v3.891c0 .457-.235.686-.47.915-.468.229-.703.458-1.172.458H28.43zm-3.988-16.707c-1.407.687-1.407 1.602-1.407 2.518 0 .686 0 1.373-.704 2.059-.704.687-1.407.687-2.11.687-1.174 0-2.112.229-2.816 1.602-.469.915-.469 1.831 0 2.975.704 1.602 2.111 2.746 3.753 3.433 2.346.915 5.865.686 9.383.686h.704v-2.746c0-2.975.234-5.95-.47-7.781-.468-1.602-1.876-2.975-3.283-3.662-1.173-.229-2.111-.229-3.05.229zm5.395 42.796c-.234 0-.704-.229-.938-.457-.704-.458-.704-1.374-.235-2.06 3.988-4.577 2.815-13.045 2.815-13.045 0-.686.704-1.373 1.408-1.373.703 0 1.407.458 1.642 1.144 0 .458 1.407 9.841-3.519 15.334-.235.228-.704.457-1.173.457z"/></g><g filter="url(#filter1_dd)" fill="#FAFF00"><path d="M24.686 164.804c-.746 0-1.492-.5-1.492-1.25s.497-1.5 1.243-1.75l4.726-.75 2.238-5.25c.249-.75 1.244-1.25 1.99-.75s1.243 1.5.746 2.25l-2.487 5.75c-.249.5-.498 1-1.244 1l-5.72.75c.249 0 .249 0 0 0z"/><path d="M19.463 187.554c-.249 0-.746 0-.995-.25-.497-.25-.746-1-.497-1.5l2.487-14.75-10.694-10.5c-.498-.25-.498-1-.498-1.5.249-.5.746-1 1.244-1l14.673-2.25 6.715-13.5c.249-.5.746-.75 1.493-.75.497 0 .994.25 1.243.75l6.715 13.5 14.674 2.25c.497 0 .994.5 1.243 1 .249.5 0 1.25-.497 1.5l-10.695 10.5 2.487 14.75c0 .5-.248 1.25-.497 1.5-.497.25-.995.5-1.492 0l-13.181-7-13.182 7c-.249.25-.497.25-.746.25zm-5.472-27l8.954 8.75c.249.25.497.75.497 1.25l-2.238 12.5 11.192-6c.497-.25.995-.25 1.492 0l11.192 6-2.239-12.5c0-.5 0-1 .498-1.25l8.953-8.75-12.435-1.75c-.498 0-.995-.5-1.244-.75l-5.222-11.5-5.72 11.5c-.25.25-.498.75-.996.75l-12.684 1.75z"/></g><g filter="url(#filter2_dd)" fill="#0091FF"><path d="M39.956 93.82c0-1.179.935-2.357 2.337-2.357h6.076c1.402 0 2.337.236 3.038.707.701.471 1.169 1.178 1.402 1.885.234.942.468 1.885.468 3.299 0 1.178-.234 2.12-.701 2.827-.468.707-1.169 1.178-2.104 1.414.701.236 1.402.471 1.87.943.467.471.467 1.178.467 2.12v5.655c0 1.414-.467 2.357-1.87 2.357-1.401 0-1.869-1.414-1.869-2.357v-5.89c0-.472-.467-1.414-1.402-1.414h-3.74v7.069c0 1.649-.7 2.356-1.869 2.356-1.168 0-1.87-1.178-1.87-2.356V93.819h-.233zm8.413 5.654c.701 0 1.169-1.178 1.169-2.356 0-.942-.468-1.885-1.169-1.885h-4.44v4.477h4.44v-.236zM10.043 93.82c0-1.179.935-2.121 2.104-2.121h3.739c1.87 0 3.272.47 4.206 1.178.935.707 1.402 1.885 1.402 3.534v.943c0 1.885-.233 2.827-1.168 3.534 1.168.236 1.87.707 2.337 1.65.234.706.467 1.885.467 3.298 0 2.121-.467 4.006-1.168 4.949-.935 1.178-2.337 1.649-4.674 1.649h-5.141c-1.169.236-2.104-.707-2.104-1.885v-16.73zm6.31 5.654c.935 0 1.169-.942 1.169-1.413V95.94c0-.707-.468-.943-1.169-.943h-2.57v4.713h2.57v-.236zm2.805 7.776v-2.592c0-.707-.468-1.885-1.636-1.885h-3.74v6.127h3.272c1.402 0 2.104-.472 2.104-1.65zm5.375 3.299c.233-.942 2.103-17.201 2.103-17.201 0-.943.935-1.65 2.103-1.65h5.375c1.169 0 1.87.707 2.103 1.886 0 0 1.87 16.023 2.104 16.965.233.943-.468 2.121-1.87 2.121-1.402 0-2.103-1.178-2.103-2.121 0-.942-.234-1.178-.234-1.178H28.74s0 .236-.234 1.414c0 1.178-.934 1.885-2.337 1.885-1.168 0-1.87-.943-1.635-2.121zm4.44-4.713h4.674l-.935-10.603h-2.337l-1.402 10.603zm-9.815-15.551c-.468 0-.935-.236-1.403-.707-.467-.707-.467-1.885.234-2.356 3.74-3.3 8.413-5.184 13.555-5.184 4.907 0 9.581 1.649 13.086 4.948.701.707.935 1.65.234 2.592-.701.707-1.636.942-2.57.236-6.077-5.42-15.892-5.42-21.968 0a1.778 1.778 0 01-1.168.47zm12.386 32.753c-4.908 0-9.582-1.885-13.321-5.184-.701-.707-.701-1.65-.234-2.592.701-.707 1.636-.707 2.571-.236 6.31 5.42 16.125 5.42 22.201-.235.701-.707 1.87-.707 2.57.235.702.707.468 1.885-.233 2.592-3.74 3.535-8.647 5.42-13.554 5.42z"/></g><g filter="url(#filter3_dd)" fill="#CB2121"><path d="M50.755 30.014l-16.68-19.286c-.735-.494-1.471-.989-2.452-.989-.736 0-1.717.495-2.208.99l-16.188 19.78c-.982 1.236-.982 2.72 0 3.956L29.906 53.75c.736.495 1.472.99 2.207.99.981 0 1.717-.495 2.208-.99L50.51 34.217c1.226-1.483 1.226-3.214.245-4.203zM32.113 51.525L15.434 32.487l16.189-19.533 16.924 19.038-16.434 19.533z"/><path d="M36.528 21.36l-3.434-3.956c-.245-.247-.736-.494-1.226-.494-.491 0-.736.247-.982.494-3.679 4.45-9.075 11.374-9.32 11.868-.49.495-.49 1.484 0 1.978.245.248.736.495.98.495.246 0 .737-.247.982-.495 0 0 .245-.247 8.34-10.384l2.207 2.472c.49.742 1.472.742 2.208.248.736-.742.736-1.731.245-2.226z"/></g><g filter="url(#filter4_dd)" fill="#CB2121"><path d="M50.755 298.851l-16.68-19.286c-.735-.494-1.471-.989-2.452-.989-.736 0-1.717.495-2.208.989l-16.188 19.78c-.982 1.237-.982 2.72 0 3.956l16.679 19.286c.736.495 1.472.989 2.207.989.981 0 1.717-.494 2.208-.989l16.189-19.533c1.226-1.483 1.226-3.214.245-4.203zm-18.642 21.511l-16.679-19.039 16.189-19.533 16.924 19.039-16.434 19.533z"/><path d="M36.528 290.197l-3.434-3.956c-.245-.247-.736-.494-1.226-.494-.491 0-.736.247-.982.494-3.679 4.451-9.075 11.374-9.32 11.868-.49.495-.49 1.484 0 1.978.245.247.736.495.98.495.246 0 .737-.248.982-.495 0 0 .245-.247 8.34-10.384l2.207 2.472c.49.742 1.472.742 2.208.247.736-.741.736-1.73.245-2.225z"/></g></g><defs><filter id="filter0_dd" x="-1.171" y="201.031" width="68.132" height="76.032" filterUnits="userSpaceOnUse" color-interpolation-filters="sRGB"><feFlood flood-opacity="0" result="BackgroundImageFix"/><feColorMatrix in="SourceAlpha" values="0 0 0 0 0 0 0 0 0 0 0 0 0 0 0 0 0 0 127 0" result="hardAlpha"/><feOffset dy="2"/><feGaussianBlur stdDeviation="7.5"/><feComposite in2="hardAlpha" operator="out"/><feColorMatrix values="0 0 0 0 0.219608 0 0 0 0 0.796078 0 0 0 0 0.129412 0 0 0 1 0"/><feBlend in2="BackgroundImageFix" result="effect1_dropShadow"/><feColorMatrix in="SourceAlpha" values="0 0 0 0 0 0 0 0 0 0 0 0 0 0 0 0 0 0 127 0" result="hardAlpha"/><feOffset dy="2"/><feGaussianBlur stdDeviation="5"/><feComposite in2="hardAlpha" operator="out"/><feColorMatrix values="0 0 0 0 0.219608 0 0 0 0 0.796078 0 0 0 0 0.129412 0 0 0 0.5 0"/><feBlend in2="effect1_dropShadow" result="effect2_dropShadow"/><feBlend in="SourceGraphic" in2="effect2_dropShadow" result="shape"/></filter><filter id="filter1_dd" x="-5.734" y="128.554" width="78.098" height="78.039" filterUnits="userSpaceOnUse" color-interpolation-filters="sRGB"><feFlood flood-opacity="0" result="BackgroundImageFix"/><feColorMatrix in="SourceAlpha" values="0 0 0 0 0 0 0 0 0 0 0 0 0 0 0 0 0 0 127 0" result="hardAlpha"/><feOffset dy="2"/><feGaussianBlur stdDeviation="7.5"/><feComposite in2="hardAlpha" operator="out"/><feColorMatrix values="0 0 0 0 0.988235 0 0 0 0 1 0 0 0 0 0 0 0 0 0.7 0"/><feBlend in2="BackgroundImageFix" result="effect1_dropShadow"/><feColorMatrix in="SourceAlpha" values="0 0 0 0 0 0 0 0 0 0 0 0 0 0 0 0 0 0 127 0" result="hardAlpha"/><feOffset dy="4"/><feGaussianBlur stdDeviation="7.5"/><feComposite in2="hardAlpha" operator="out"/><feColorMatrix values="0 0 0 0 0.988235 0 0 0 0 1 0 0 0 0 0.027451 0 0 0 0.5 0"/><feBlend in2="effect1_dropShadow" result="effect2_dropShadow"/><feBlend in="SourceGraphic" in2="effect2_dropShadow" result="shape"/></filter><filter id="filter2_dd" x="-9.957" y="64.038" width="83.233" height="81" filterUnits="userSpaceOnUse" color-interpolation-filters="sRGB"><feFlood flood-opacity="0" result="BackgroundImageFix"/><feColorMatrix in="SourceAlpha" values="0 0 0 0 0 0 0 0 0 0 0 0 0 0 0 0 0 0 127 0" result="hardAlpha"/><feOffset dy="2"/><feGaussianBlur stdDeviation="10"/><feComposite in2="hardAlpha" operator="out"/><feColorMatrix values="0 0 0 0 0.0550868 0 0 0 0 0.419433 0 0 0 0 0.695833 0 0 0 0.7 0"/><feBlend in2="BackgroundImageFix" result="effect1_dropShadow"/><feColorMatrix in="SourceAlpha" values="0 0 0 0 0 0 0 0 0 0 0 0 0 0 0 0 0 0 127 0" result="hardAlpha"/><feOffset dy="4"/><feGaussianBlur stdDeviation="7.5"/><feComposite in2="hardAlpha" operator="out"/><feColorMatrix values="0 0 0 0 0 0 0 0 0 0.568627 0 0 0 0 1 0 0 0 0.5 0"/><feBlend in2="effect1_dropShadow" result="effect2_dropShadow"/><feBlend in="SourceGraphic" in2="effect2_dropShadow" result="shape"/></filter><filter id="filter3_dd" x="-2.509" y="-3.261" width="68.972" height="75" filterUnits="userSpaceOnUse" color-interpolation-filters="sRGB"><feFlood flood-opacity="0" result="BackgroundImageFix"/><feColorMatrix in="SourceAlpha" values="0 0 0 0 0 0 0 0 0 0 0 0 0 0 0 0 0 0 127 0" result="hardAlpha"/><feOffset dy="2"/><feGaussianBlur stdDeviation="7.5"/><feComposite in2="hardAlpha" operator="out"/><feColorMatrix values="0 0 0 0 0.9875 0 0 0 0 0.0781771 0 0 0 0 0.0781771 0 0 0 1 0"/><feBlend in2="BackgroundImageFix" result="effect1_dropShadow"/><feColorMatrix in="SourceAlpha" values="0 0 0 0 0 0 0 0 0 0 0 0 0 0 0 0 0 0 127 0" result="hardAlpha"/><feOffset dy="2"/><feGaussianBlur stdDeviation="5"/><feComposite in2="hardAlpha" operator="out"/><feColorMatrix values="0 0 0 0 0.796078 0 0 0 0 0.129412 0 0 0 0 0.129412 0 0 0 0.5 0"/><feBlend in2="effect1_dropShadow" result="effect2_dropShadow"/><feBlend in="SourceGraphic" in2="effect2_dropShadow" result="shape"/></filter><filter id="filter4_dd" x="-2.509" y="265.576" width="68.972" height="75" filterUnits="userSpaceOnUse" color-interpolation-filters="sRGB"><feFlood flood-opacity="0" result="BackgroundImageFix"/><feColorMatrix in="SourceAlpha" values="0 0 0 0 0 0 0 0 0 0 0 0 0 0 0 0 0 0 127 0" result="hardAlpha"/><feOffset dy="2"/><feGaussianBlur stdDeviation="7.5"/><feComposite in2="hardAlpha" operator="out"/><feColorMatrix values="0 0 0 0 0.9875 0 0 0 0 0.0781771 0 0 0 0 0.0781771 0 0 0 1 0"/><feBlend in2="BackgroundImageFix" result="effect1_dropShadow"/><feColorMatrix in="SourceAlpha" values="0 0 0 0 0 0 0 0 0 0 0 0 0 0 0 0 0 0 127 0" result="hardAlpha"/><feOffset dy="2"/><feGaussianBlur stdDeviation="5"/><feComposite in2="hardAlpha" operator="out"/><feColorMatrix values="0 0 0 0 0.796078 0 0 0 0 0.129412 0 0 0 0 0.129412 0 0 0 0.5 0"/><feBlend in2="effect1_dropShadow" result="effect2_dropShadow"/><feBlend in="SourceGraphic" in2="effect2_dropShadow" result="shape"/></filter><clipPath id="clip0"><path fill="#fff" d="M0 0h67v335H0z"/></clipPath></defs></svg>