<svg width="67" height="335" fill="none" xmlns="http://www.w3.org/2000/svg"><g clip-path="url(#clip0)"><g filter="url(#filter0_dd)" fill="#FAFF00"><path d="M24.692 165.087c-.746 0-1.492-.5-1.492-1.25s.497-1.5 1.243-1.75l4.726-.75 2.238-5.25c.249-.75 1.244-1.25 1.99-.75s1.243 1.5.746 2.25l-2.487 5.75c-.249.5-.498 1-1.244 1l-5.72.75c.249 0 .249 0 0 0z"/><path d="M19.469 187.837c-.249 0-.746 0-.995-.25-.497-.25-.746-1-.497-1.5l2.487-14.75-10.695-10.5c-.497-.25-.497-1-.497-1.5.249-.5.746-1 1.243-1l14.674-2.25 6.715-13.5c.249-.5.746-.75 1.492-.75.498 0 .995.25 1.244.75l6.715 13.5 14.673 2.25c.498 0 .995.5 1.244 1s0 1.25-.497 1.5l-10.695 10.5 2.487 14.75c0 .5-.248 1.25-.497 1.5-.498.25-.995.5-1.492 0l-13.182-7-13.181 7c-.249.25-.497.25-.746.25zm-5.472-27l8.954 8.75c.248.25.497.75.497 1.25l-2.238 12.5 11.191-6a1.58 1.58 0 011.493 0l11.191 6-2.238-12.5c0-.5 0-1 .497-1.25l8.954-8.75-12.435-1.75c-.498 0-.995-.5-1.244-.75l-5.223-11.5-5.72 11.5c-.249.25-.497.75-.995.75l-12.684 1.75z"/></g><g filter="url(#filter1_dd)" fill="#CB2121"><path d="M52.318 225.785c-1.622-3.238-4.633-5.551-8.34-6.013-.926-.232-1.853-.232-2.78-.232-4.632 0-6.948 2.082-8.338 3.932-1.39-1.619-3.706-3.7-8.107-3.7-.927 0-1.854 0-2.78.231-3.706.694-6.718 2.775-8.34 6.245-1.852 3.7-1.62 8.326.696 12.258 2.084 3.701 6.717 6.939 11.35 10.408 1.853 1.388 3.938 2.776 5.56 4.164.463.462 1.158.694 1.853.694.694 0 1.39-.232 1.853-.694l5.559-4.164c4.633-3.469 9.265-6.938 11.119-10.639 2.316-4.163 2.548-8.558.695-12.49zm-3.012 11.102c-2.548 4.626-9.96 9.021-15.983 13.878-6.254-4.857-13.898-9.252-16.446-13.646-3.706-6.245-.463-13.415 5.56-14.341.926-.231 1.62-.231 2.316-.231 6.022 0 6.717 4.857 8.339 4.857 1.39 0 2.084-5.088 8.339-5.088.694 0 1.39 0 2.084.231 6.023.925 9.266 7.864 5.791 14.34z"/><path d="M24.289 224.86c-2.085 0-3.938.694-5.096 2.082-1.39 1.619-1.853 3.7-1.39 6.245.232.694.695 1.156 1.39 1.156h.232c.926-.231 1.39-.925 1.158-1.85-.232-1.388 0-2.776.695-3.701a3.838 3.838 0 012.78-1.156h.231c.695 0 1.39-.694 1.39-1.388s-.695-1.388-1.39-1.388z"/></g><g filter="url(#filter2_dd)"><path d="M29.486 320.155c-6.762 0-13.29-2.507-18.42-7.523-.466-.456-.466-1.368 0-2.052.466-.456 1.399-.456 2.098 0 9.094 8.892 23.783 8.892 32.876 0 9.093-8.891 9.093-23.254 0-32.145-.466-.456-.466-1.368 0-2.052.467-.455 1.4-.455 2.099 0 10.259 10.032 10.259 26.218 0 36.021-5.363 5.244-11.892 7.751-18.653 7.751z" fill="#38CB21"/><path d="M39.278 306.249c.773 0 1.4-.613 1.4-1.368 0-.756-.627-1.368-1.4-1.368-.772 0-1.399.612-1.399 1.368 0 .755.627 1.368 1.4 1.368zm-16.088 2.28c.773 0 1.4-.613 1.4-1.368 0-.756-.627-1.368-1.4-1.368-.772 0-1.399.612-1.399 1.368 0 .755.627 1.368 1.4 1.368z" fill="red"/><path d="M29.485 315.14c-5.595 0-10.725-2.052-14.689-5.928-.233-.228-.466-.683-.466-.911 0-.456.233-.684.466-.912l27.513-27.13c.467-.456 1.4-.456 2.099 0 3.963 3.876 6.062 8.891 6.062 14.363 0 5.471-2.099 10.487-6.062 14.362-4.197 3.876-9.327 6.156-14.923 6.156zm-11.657-7.067c6.994 5.927 17.72 5.699 24.481-.912 3.498-3.42 5.363-7.752 5.363-12.539 0-4.332-1.632-8.207-4.43-11.399l-25.414 24.85z" fill="#CB2121"/><path d="M43.009 288.01c.466.456.466 1.368 0 2.052-.467.456-1.4.456-2.099 0-.466-.456-.466-1.368 0-2.052.467-.456 1.4-.456 2.099 0zm.466 8.436c.467.456.467 1.368 0 2.052-.466.456-1.398.456-2.098 0-.466-.456-.466-1.368 0-2.052.466-.456 1.399-.456 2.098 0zm-6.994.456c.773 0 1.399-.613 1.399-1.368 0-.756-.626-1.368-1.399-1.368s-1.399.612-1.399 1.368c0 .755.626 1.368 1.399 1.368zm-5.597 7.295c.773 0 1.4-.612 1.4-1.368 0-.755-.627-1.368-1.4-1.368-.772 0-1.399.613-1.399 1.368 0 .756.627 1.368 1.4 1.368zm0 6.383c.773 0 1.4-.612 1.4-1.368 0-.755-.627-1.367-1.4-1.367-.772 0-1.399.612-1.399 1.367 0 .756.627 1.368 1.4 1.368z" fill="red"/></g><g filter="url(#filter3_dd)" fill="#A600FF"><path d="M50.213 98.053c-1.983-3.456-6.17-6.481-10.797-9.722l-5.288-3.889c-.44-.432-1.102-.648-1.542-.648-.661 0-1.322.216-1.763.648l-5.288 3.89c-4.627 3.24-8.814 6.265-10.797 9.721-1.983 3.673-2.203 7.778-.66 11.235 1.542 3.241 4.406 5.401 7.931 6.049.661.216 1.322.216 1.983.216v.216c0 .865.22 1.513.882 1.945.66.648 1.322 1.08 2.424 1.08.66 0 1.322-.216 2.203-.216 1.101-.216 2.203-.432 3.305-.432 1.102 0 2.203.216 3.305.432.881.216 1.542.216 2.203.216 2.204 0 3.306-1.512 3.306-3.025v-.216c.44 0 .88 0 1.542-.216 3.525-.648 6.39-2.808 7.932-5.833 1.542-3.457 1.322-7.778-.881-11.45zM42.5 112.745c-.661.216-1.322.216-1.983.216-3.526 0-4.407-1.945-5.288-1.945h-.22c-.882.649 0 2.809 3.745 4.753 0 .217-.22.433-.66.433-.882 0-3.086-.649-5.29-.649h-.22c-2.203 0-4.406.649-5.288.649-.44 0-.66 0-.66-.216 3.745-2.161 5.067-4.321 3.745-4.754h-.22c-1.102 0-1.983 1.945-5.509 1.945-.66 0-1.322 0-2.203-.216-5.729-1.08-8.814-7.346-5.288-13.395 2.424-4.321 9.474-8.21 15.424-12.963 5.949 4.537 13 8.642 15.423 12.963 3.305 5.833.22 12.099-5.508 13.179z"/><path d="M25.094 108.64c-1.763 0-3.746-.864-4.407-2.161-.66-1.296-.44-2.808.44-4.321.442-.648.221-1.512-.44-1.728-.66-.432-1.542-.216-1.983.432-1.322 2.377-1.542 4.753-.44 6.698 1.322 2.16 3.966 3.672 6.83 3.672.661 0 1.322-.648 1.322-1.296 0-.864-.44-1.296-1.322-1.296z"/></g><g filter="url(#filter4_dd)"><path d="M33.69 43.249c-1.144 0-2.288-.231-3.433-.693a9.106 9.106 0 01-5.036-5.076 9.66 9.66 0 010-7.154c1.831-4.616 7.096-6.923 11.903-4.846 4.579 1.846 6.868 7.384 5.037 12a9.106 9.106 0 01-5.037 5.076c-1.144.462-2.289.693-3.433.693zm0-15.693c-2.517 0-4.806 1.616-5.951 3.924-.687 1.615-.687 3.23 0 4.846.687 1.615 1.831 2.769 3.434 3.461 1.602.693 3.205.693 4.807 0 1.602-.692 2.747-1.846 3.434-3.461 1.373-3.231-.23-6.923-3.434-8.308-.687-.23-1.602-.462-2.29-.462z" fill="#A600FF"/><path d="M37.81 28.249h-1.373c-.457 0-.686-.23-.915-.462-.458-.23-7.784-8.538-4.808-15.923.23-.461.458-.692.916-.923.458 0 .916 0 1.374.462l3.662 3.692 5.494-5.077c.458-.461 1.145-.461 1.603-.461.457.23.915.692.915 1.153l.23 8.077 5.951.231c.458 0 .916.23 1.145.692.229.462.229.923 0 1.385-2.747 6.462-10.988 7.154-14.193 7.154zm-.686-2.77c1.831 0 8.012 0 10.988-3.922l-4.807-.231c-.687 0-1.374-.693-1.374-1.385v-5.77l-4.35 3.924c-.457.462-1.373.462-1.83 0l-2.976-3c-.23 4.385 3.205 9 4.35 10.385z" fill="#38CB21"/><path d="M23.39 50.864c-1.145 0-2.29-.23-3.434-.692-.458-.23-.916-.462-1.145-.692-3.892-2.308-5.494-7.154-3.663-11.539 1.832-4.385 6.868-6.692 11.446-5.308.687.231 1.145 1.154.916 1.847-.23.692-1.145 1.154-1.832.923-3.204-1.154-6.638.461-8.012 3.692-1.144 3 0 6.23 2.518 7.846.23.23.458.23.916.462 2.06.923 4.35.461 6.18-.693.688-.461 1.603-.23 2.061.231.458.692.23 1.615-.229 2.077-2.06 1.154-3.891 1.846-5.723 1.846z" fill="#A600FF"/><path d="M35.521 55.941c-1.144 0-2.289-.23-3.433-.692a9.106 9.106 0 01-5.037-5.077 9.658 9.658 0 010-7.154c.458-.923.916-1.846 1.603-2.77.458-.46 1.373-.691 2.06 0 .458.462.687 1.386 0 2.078-.458.461-.687 1.154-1.144 1.846-.687 1.615-.687 3.23 0 4.846.686 1.615 1.83 2.77 3.433 3.462 1.603.692 3.205.692 4.807 0 1.603-.693 2.747-1.846 3.434-3.462 1.145-3 0-6.23-2.518-7.846-.687-.462-.916-1.154-.458-1.846.458-.693 1.145-.923 1.832-.462 3.891 2.308 5.494 7.154 3.662 11.539a9.106 9.106 0 01-5.036 5.077c-.687.23-2.06.461-3.205.461z" fill="#A600FF"/><path d="M26.594 60.557c-1.145 0-2.289-.231-3.434-.693a9.106 9.106 0 01-5.036-5.077 9.66 9.66 0 010-7.153c.23-.693 1.145-1.154 1.832-.693.686.231 1.144 1.154.686 1.846-.686 1.616-.686 3.231 0 4.847.687 1.615 1.832 2.769 3.434 3.461 1.602.923 3.434.923 4.807.23 1.603-.691 2.747-1.845 3.434-3.46.229-.693 1.145-1.154 1.831-.693.687.23 1.145 1.154.687 1.846a9.106 9.106 0 01-5.036 5.077c-.916.23-2.06.462-3.205.462zm16.482-14.539c-.687 0-1.373-.692-1.373-1.385 0-.692.686-1.384 1.373-1.384 2.518 0 4.807-1.616 5.723-3.923.687-1.616.687-3.231 0-4.846-.687-1.616-1.831-2.77-3.434-3.462a6.365 6.365 0 00-5.036 0c-.687.23-1.602 0-1.831-.692-.229-.692 0-1.616.687-1.846a9.439 9.439 0 017.096 0 9.106 9.106 0 015.036 5.077 9.658 9.658 0 010 7.153c-1.144 3-4.35 5.308-8.24 5.308zm-23.578-9.692c-.458 0-.687-.231-.916-.462-2.518-2.769-3.434-6.692-2.06-10.154a9.106 9.106 0 015.036-5.076 9.439 9.439 0 017.096 0c2.06 1.153 3.892 2.769 4.808 5.076.228.693 0 1.616-.687 1.846-.687.231-1.603 0-1.831-.692-.687-1.615-1.832-2.769-3.434-3.461-3.205-1.385-6.868.23-8.241 3.461-.916 2.308-.458 5.077 1.373 6.923.458.462.458 1.385 0 2.077-.458.231-.686.462-1.144.462zm11.674-2.077h-.457c-.687-.23-1.145-.923-.916-1.846 0-.231.687-1.846 2.289-2.539.687-.461 2.06-.692 3.663 0 .686.462 1.144 1.154.686 1.846-.229.923-1.144 1.154-1.831.923-.458-.23-1.145-.461-1.373-.23-.458.23-.687.923-.687.923-.23.692-.916.923-1.374.923zm-9.614 10.615c-.229 0-.687 0-.916-.23-.229-.231-1.602-1.154-1.602-3 0-.924 0-2.078 1.373-3.462.458-.462 1.374-.692 2.06 0 .459.462.688 1.385 0 2.077-.457.461-.686.923-.686 1.384 0 .462.687.923.687.923.686.462.686 1.385.229 2.078-.23 0-.687.23-1.145.23z" fill="#A600FF"/><path d="M36.437 28.249c-.687 0-1.373-.462-1.373-1.385 0-.23-.23-3.923 2.747-7.384.458-.693 1.373-.693 2.06 0 .458.461.687 1.384 0 2.076-2.29 2.539-2.06 5.077-2.06 5.077 0 .924-.458 1.616-1.374 1.616z" fill="#38CB21"/></g></g><defs><filter id="filter0_dd" x="-5.728" y="128.837" width="78.098" height="78.039" filterUnits="userSpaceOnUse" color-interpolation-filters="sRGB"><feFlood flood-opacity="0" result="BackgroundImageFix"/><feColorMatrix in="SourceAlpha" values="0 0 0 0 0 0 0 0 0 0 0 0 0 0 0 0 0 0 127 0" result="hardAlpha"/><feOffset dy="2"/><feGaussianBlur stdDeviation="7.5"/><feComposite in2="hardAlpha" operator="out"/><feColorMatrix values="0 0 0 0 0.988235 0 0 0 0 1 0 0 0 0 0 0 0 0 0.7 0"/><feBlend in2="BackgroundImageFix" result="effect1_dropShadow"/><feColorMatrix in="SourceAlpha" values="0 0 0 0 0 0 0 0 0 0 0 0 0 0 0 0 0 0 127 0" result="hardAlpha"/><feOffset dy="4"/><feGaussianBlur stdDeviation="7.5"/><feComposite in2="hardAlpha" operator="out"/><feColorMatrix values="0 0 0 0 0.988235 0 0 0 0 1 0 0 0 0 0.027451 0 0 0 0.5 0"/><feBlend in2="effect1_dropShadow" result="effect2_dropShadow"/><feBlend in="SourceGraphic" in2="effect2_dropShadow" result="shape"/></filter><filter id="filter1_dd" x="-7.602" y="201.54" width="81.154" height="74.231" filterUnits="userSpaceOnUse" color-interpolation-filters="sRGB"><feFlood flood-opacity="0" result="BackgroundImageFix"/><feColorMatrix in="SourceAlpha" values="0 0 0 0 0 0 0 0 0 0 0 0 0 0 0 0 0 0 127 0" result="hardAlpha"/><feOffset dy="2"/><feGaussianBlur stdDeviation="10"/><feComposite in2="hardAlpha" operator="out"/><feColorMatrix values="0 0 0 0 0.796078 0 0 0 0 0.129412 0 0 0 0 0.129412 0 0 0 0.8 0"/><feBlend in2="BackgroundImageFix" result="effect1_dropShadow"/><feColorMatrix in="SourceAlpha" values="0 0 0 0 0 0 0 0 0 0 0 0 0 0 0 0 0 0 127 0" result="hardAlpha"/><feOffset dy="2"/><feGaussianBlur stdDeviation="5"/><feComposite in2="hardAlpha" operator="out"/><feColorMatrix values="0 0 0 0 0.796078 0 0 0 0 0.129412 0 0 0 0 0.129412 0 0 0 0.5 0"/><feBlend in2="effect1_dropShadow" result="effect2_dropShadow"/><feBlend in="SourceGraphic" in2="effect2_dropShadow" result="shape"/></filter><filter id="filter2_dd" x="-9.284" y="258.042" width="85.117" height="84.114" filterUnits="userSpaceOnUse" color-interpolation-filters="sRGB"><feFlood flood-opacity="0" result="BackgroundImageFix"/><feColorMatrix in="SourceAlpha" values="0 0 0 0 0 0 0 0 0 0 0 0 0 0 0 0 0 0 127 0" result="hardAlpha"/><feOffset dy="2"/><feGaussianBlur stdDeviation="10"/><feComposite in2="hardAlpha" operator="out"/><feColorMatrix values="0 0 0 0 0.796078 0 0 0 0 0.129412 0 0 0 0 0.129412 0 0 0 0.8 0"/><feBlend in2="BackgroundImageFix" result="effect1_dropShadow"/><feColorMatrix in="SourceAlpha" values="0 0 0 0 0 0 0 0 0 0 0 0 0 0 0 0 0 0 127 0" result="hardAlpha"/><feOffset dy="4"/><feGaussianBlur stdDeviation="7.5"/><feComposite in2="hardAlpha" operator="out"/><feColorMatrix values="0 0 0 0 0.796078 0 0 0 0 0.129412 0 0 0 0 0.129412 0 0 0 0.5 0"/><feBlend in2="effect1_dropShadow" result="effect2_dropShadow"/><feBlend in="SourceGraphic" in2="effect2_dropShadow" result="shape"/></filter><filter id="filter3_dd" x="-6.935" y="65.794" width="79.024" height="75" filterUnits="userSpaceOnUse" color-interpolation-filters="sRGB"><feFlood flood-opacity="0" result="BackgroundImageFix"/><feColorMatrix in="SourceAlpha" values="0 0 0 0 0 0 0 0 0 0 0 0 0 0 0 0 0 0 127 0" result="hardAlpha"/><feOffset dy="2"/><feGaussianBlur stdDeviation="10"/><feComposite in2="hardAlpha" operator="out"/><feColorMatrix values="0 0 0 0 0.65098 0 0 0 0 0 0 0 0 0 1 0 0 0 0.8 0"/><feBlend in2="BackgroundImageFix" result="effect1_dropShadow"/><feColorMatrix in="SourceAlpha" values="0 0 0 0 0 0 0 0 0 0 0 0 0 0 0 0 0 0 127 0" result="hardAlpha"/><feOffset dy="2"/><feGaussianBlur stdDeviation="7.5"/><feComposite in2="hardAlpha" operator="out"/><feColorMatrix values="0 0 0 0 0.65098 0 0 0 0 0 0 0 0 0 1 0 0 0 0.5 0"/><feBlend in2="effect1_dropShadow" result="effect2_dropShadow"/><feBlend in="SourceGraphic" in2="effect2_dropShadow" result="shape"/></filter><filter id="filter4_dd" x="-5.607" y="-8.443" width="77.783" height="91" filterUnits="userSpaceOnUse" color-interpolation-filters="sRGB"><feFlood flood-opacity="0" result="BackgroundImageFix"/><feColorMatrix in="SourceAlpha" values="0 0 0 0 0 0 0 0 0 0 0 0 0 0 0 0 0 0 127 0" result="hardAlpha"/><feOffset dy="2"/><feGaussianBlur stdDeviation="10"/><feComposite in2="hardAlpha" operator="out"/><feColorMatrix values="0 0 0 0 0.65098 0 0 0 0 0 0 0 0 0 1 0 0 0 0.8 0"/><feBlend in2="BackgroundImageFix" result="effect1_dropShadow"/><feColorMatrix in="SourceAlpha" values="0 0 0 0 0 0 0 0 0 0 0 0 0 0 0 0 0 0 127 0" result="hardAlpha"/><feOffset dy="2"/><feGaussianBlur stdDeviation="7.5"/><feComposite in2="hardAlpha" operator="out"/><feColorMatrix values="0 0 0 0 0.65098 0 0 0 0 0 0 0 0 0 1 0 0 0 0.5 0"/><feBlend in2="effect1_dropShadow" result="effect2_dropShadow"/><feBlend in="SourceGraphic" in2="effect2_dropShadow" result="shape"/></filter><clipPath id="clip0"><path fill="#fff" d="M0 0h67v335H0z"/></clipPath></defs></svg>