<svg width="68" height="335" fill="none" xmlns="http://www.w3.org/2000/svg"><g clip-path="url(#clip0)"><g filter="url(#filter0_dd)"><path d="M48.239 320.392H24.3c-.653 0-1.306-.673-1.306-1.347v-6.959l-3.917-10.776c-2.176.225-4.135-1.795-4.135-4.04s1.741-4.266 4.135-4.266c2.394 0 4.135 1.796 4.135 4.266 0 .449 0 .898-.218 1.122l8.052 6.061 2.394-9.204c-1.306-.898-1.959-2.245-1.959-3.592 0-2.245 1.741-4.265 4.135-4.265 2.176 0 4.135 1.796 4.135 4.265 0 1.347-.653 2.694-1.741 3.368l2.829 9.428 8.051-6.061c-.217-.449-.217-.898-.217-1.347 0-2.245 1.74-4.265 4.135-4.265 2.393 0 4.134 1.796 4.134 4.265 0 2.245-1.74 4.265-4.134 4.265l-3.265 10.776v7.184c0 .673-.652 1.122-1.305 1.122zm-22.632-2.694h21.108v-6.286l3.482-10.551-9.357 6.96c-.436.224-.87.224-1.306.224-.218-.224-.653-.449-.653-.898l-3.046-10.326-2.612 10.326c-.218.449-.435.674-.87.898-.436.225-.87 0-1.306-.224l-9.14-6.96 3.7 10.327v6.51zm26.331-19.306h.871c.87 0 1.523-.673 1.523-1.571 0-.898-.653-1.572-1.523-1.572-.87 0-1.524.674-1.524 1.572 0 .224 0 .449.218.898s.435.673.435.673zm-32.86-2.694c-.87 0-1.523.674-1.523 1.572 0 .673.653 1.347 1.523 1.347h.87c0-.225.218-.225.218-.449.218-.225.218-.674.218-.898.217-.898-.436-1.572-1.306-1.572zm16.539-5.612c-.87 0-1.523.673-1.523 1.571 0 .674.652 1.347 1.088 1.347.217 0 .217 0 .435.225.218 0 .218-.225.435-.225.435-.224 1.088-.673 1.088-1.347 0-.898-.653-1.571-1.523-1.571z" fill="#FAFF00"/></g><g filter="url(#filter1_dd)" fill="#CB2121"><path d="M54.175 231.637c-1.621-3.238-4.632-5.551-8.339-6.014-.926-.231-1.853-.231-2.78-.231-4.632 0-6.948 2.082-8.338 3.932-1.39-1.619-3.707-3.701-8.108-3.701-.926 0-1.853 0-2.78.232-3.705.694-6.717 2.775-8.338 6.245-1.853 3.7-1.622 8.326.695 12.258 2.084 3.701 6.717 6.939 11.35 10.408 1.853 1.388 3.938 2.776 5.56 4.164.462.462 1.157.693 1.852.693.695 0 1.39-.231 1.854-.693l5.559-4.164c4.633-3.469 9.265-6.939 11.118-10.639 2.317-4.163 2.549-8.558.695-12.49zm-3.01 11.102c-2.549 4.626-9.961 9.02-15.984 13.878-6.254-4.858-13.898-9.252-16.446-13.647-3.707-6.245-.464-13.415 5.559-14.34.927-.231 1.622-.231 2.316-.231 6.023 0 6.718 4.857 8.34 4.857 1.39 0 2.084-5.088 8.338-5.088.695 0 1.39 0 2.085.231 6.023.925 9.266 7.864 5.791 14.34z"/><path d="M26.147 230.712c-2.085 0-3.938.694-5.096 2.082-1.39 1.619-1.853 3.7-1.39 6.244.232.694.695 1.157 1.39 1.157h.232c.926-.231 1.39-.925 1.158-1.85-.232-1.388 0-2.776.695-3.701a3.839 3.839 0 012.78-1.157h.23c.696 0 1.39-.693 1.39-1.387 0-.694-.694-1.388-1.39-1.388z"/></g><g filter="url(#filter2_dd)" fill="#FAFF00"><path d="M26.293 164.312c-.747 0-1.493-.5-1.493-1.25s.498-1.5 1.244-1.75l4.725-.75 2.239-5.25c.248-.75 1.243-1.25 1.99-.75.745.5 1.243 1.5.745 2.25l-2.487 5.75c-.248.5-.497 1-1.243 1l-5.72.75c.248 0 .248 0 0 0z"/><path d="M21.07 187.062c-.25 0-.747 0-.995-.25-.498-.25-.747-1-.498-1.5l2.487-14.75-10.694-10.5c-.497-.25-.497-1-.497-1.5.248-.5.746-1 1.243-1l14.674-2.25 6.715-13.5c.248-.5.746-.75 1.492-.75.497 0 .995.25 1.243.75l6.715 13.5 14.674 2.25c.497 0 .995.5 1.244 1 .248.5 0 1.25-.498 1.5l-10.694 10.5 2.487 14.75c0 .5-.249 1.25-.498 1.5-.497.25-.994.5-1.492 0l-13.181-7-13.181 7c-.25.25-.498.25-.747.25zm-5.472-27l8.953 8.75c.249.25.498.75.498 1.25l-2.239 12.5 11.192-6c.497-.25.995-.25 1.492 0l11.192 6-2.238-12.5c0-.5 0-1 .497-1.25l8.953-8.75-12.435-1.75c-.497 0-.995-.5-1.243-.75l-5.223-11.5-5.72 11.5c-.249.25-.498.75-.995.75l-12.684 1.75z"/></g><g filter="url(#filter3_dd)" fill="#A600FF"><path d="M52.07 92.651c-1.982-3.456-6.169-6.481-10.796-9.722l-5.288-3.889c-.44-.432-1.102-.648-1.542-.648-.662 0-1.323.216-1.763.648l-5.288 3.89c-4.628 3.24-8.814 6.265-10.797 9.721-1.983 3.673-2.203 7.778-.661 11.235 1.542 3.241 4.407 5.401 7.932 6.049.661.216 1.322.216 1.983.216v.217c0 .864.22 1.512.882 1.944.66.648 1.322 1.08 2.423 1.08.661 0 1.322-.216 2.204-.216 1.102-.216 2.203-.432 3.305-.432 1.102 0 2.203.216 3.305.432.881.216 1.542.216 2.203.216 2.204 0 3.305-1.512 3.305-3.024v-.217c.441 0 .882 0 1.543-.216 3.525-.648 6.39-2.808 7.932-5.833 1.542-3.457 1.322-7.778-.881-11.45zm-7.711 14.692c-.661.216-1.322.216-1.983.216-3.526 0-4.407-1.945-5.288-1.945h-.22c-.882.649 0 2.809 3.745 4.754 0 .216-.22.432-.661.432-.881 0-3.085-.649-5.288-.649h-.22c-2.204 0-4.407.649-5.289.649-.44 0-.66 0-.66-.216 3.745-2.161 5.067-4.321 3.745-4.754h-.22c-1.102 0-1.983 1.945-5.509 1.945-.66 0-1.322 0-2.203-.216-5.729-1.08-8.814-7.346-5.288-13.395 2.424-4.321 9.474-8.21 15.424-12.963 5.949 4.537 13 8.642 15.423 12.963 3.305 5.833.22 12.099-5.508 13.179z"/><path d="M26.952 103.238c-1.763 0-3.746-.864-4.407-2.161-.66-1.296-.44-2.808.44-4.32.442-.649.221-1.513-.44-1.729-.66-.432-1.542-.216-1.983.432-1.322 2.377-1.542 4.753-.44 6.698 1.321 2.16 3.965 3.672 6.83 3.672.66 0 1.322-.648 1.322-1.296 0-.864-.44-1.296-1.322-1.296z"/></g><g filter="url(#filter4_d)"><path d="M55.834 44.35c0-4.354-1.393-8.479-4.177-11.916-1.857-10.542-5.801-17.875-11.602-20.396 0-3.667-2.321-6.417-5.105-6.417-3.017-.229-5.106 2.521-5.338 6.188-5.8 2.75-9.745 9.854-11.602 20.396-2.784 3.666-4.177 7.791-4.177 12.145 0 .23 0 .459.232.459 1.393 4.354 17.404 4.583 20.885 4.583 3.48 0 19.491-.229 20.883-4.583v-.459zM20.33 33.81c.232-.23.232-.459.232-.688 1.624-10.083 5.569-17.187 10.906-19.02.696-.459.928-1.146.928-1.605v-.458c0-2.062 1.16-3.896 2.553-3.896 1.392 0 2.552 1.834 2.552 3.896v.458c0 .688.232 1.146.928 1.375 4.873 1.834 8.586 8.021 10.442 16.959-8.353-2.98-16.01-1.834-16.243-1.834-.696 0-1.16.688-.928 1.375 0 .688.696 1.146 1.392.917 0 0 8.122-1.146 16.707 2.292 1.857 2.291 3.017 4.812 3.713 7.562-5.105-2.062-15.315-2.062-18.1-2.062-2.784 0-12.994.229-18.099 2.062 0-2.52 1.16-5.27 3.017-7.333zm14.62 11.686c-2.32 0-4.177-1.604-4.41-3.666h8.819c-.464 2.291-2.32 3.666-4.408 3.666zm-7.194-3.437c.232 1.833 1.16 3.437 2.553 4.354-7.658-.23-12.299-1.375-13.691-2.292 1.392-.687 5.105-1.604 11.138-2.062zm11.37 4.354c1.393-1.146 2.32-2.52 2.553-4.354 6.265.458 9.978 1.375 11.138 2.062-1.16.917-5.801 2.063-13.69 2.292z" fill="#FAFF00"/></g></g><defs><filter id="filter0_dd" x="-5.057" y="269.392" width="82" height="73" filterUnits="userSpaceOnUse" color-interpolation-filters="sRGB"><feFlood flood-opacity="0" result="BackgroundImageFix"/><feColorMatrix in="SourceAlpha" values="0 0 0 0 0 0 0 0 0 0 0 0 0 0 0 0 0 0 127 0" result="hardAlpha"/><feOffset dy="2"/><feGaussianBlur stdDeviation="10"/><feComposite in2="hardAlpha" operator="out"/><feColorMatrix values="0 0 0 0 0.988235 0 0 0 0 1 0 0 0 0 0.027451 0 0 0 0.8 0"/><feBlend in2="BackgroundImageFix" result="effect1_dropShadow"/><feColorMatrix in="SourceAlpha" values="0 0 0 0 0 0 0 0 0 0 0 0 0 0 0 0 0 0 127 0" result="hardAlpha"/><feOffset dy="2"/><feGaussianBlur stdDeviation="7.5"/><feComposite in2="hardAlpha" operator="out"/><feColorMatrix values="0 0 0 0 0.980392 0 0 0 0 1 0 0 0 0 0 0 0 0 0.5 0"/><feBlend in2="effect1_dropShadow" result="effect2_dropShadow"/><feBlend in="SourceGraphic" in2="effect2_dropShadow" result="shape"/></filter><filter id="filter1_dd" x="-5.744" y="207.392" width="81.154" height="74.231" filterUnits="userSpaceOnUse" color-interpolation-filters="sRGB"><feFlood flood-opacity="0" result="BackgroundImageFix"/><feColorMatrix in="SourceAlpha" values="0 0 0 0 0 0 0 0 0 0 0 0 0 0 0 0 0 0 127 0" result="hardAlpha"/><feOffset dy="2"/><feGaussianBlur stdDeviation="10"/><feComposite in2="hardAlpha" operator="out"/><feColorMatrix values="0 0 0 0 0.796078 0 0 0 0 0.129412 0 0 0 0 0.129412 0 0 0 0.8 0"/><feBlend in2="BackgroundImageFix" result="effect1_dropShadow"/><feColorMatrix in="SourceAlpha" values="0 0 0 0 0 0 0 0 0 0 0 0 0 0 0 0 0 0 127 0" result="hardAlpha"/><feOffset dy="2"/><feGaussianBlur stdDeviation="5"/><feComposite in2="hardAlpha" operator="out"/><feColorMatrix values="0 0 0 0 0.796078 0 0 0 0 0.129412 0 0 0 0 0.129412 0 0 0 0.5 0"/><feBlend in2="effect1_dropShadow" result="effect2_dropShadow"/><feBlend in="SourceGraphic" in2="effect2_dropShadow" result="shape"/></filter><filter id="filter2_dd" x="-4.127" y="128.062" width="78.098" height="78.039" filterUnits="userSpaceOnUse" color-interpolation-filters="sRGB"><feFlood flood-opacity="0" result="BackgroundImageFix"/><feColorMatrix in="SourceAlpha" values="0 0 0 0 0 0 0 0 0 0 0 0 0 0 0 0 0 0 127 0" result="hardAlpha"/><feOffset dy="2"/><feGaussianBlur stdDeviation="7.5"/><feComposite in2="hardAlpha" operator="out"/><feColorMatrix values="0 0 0 0 0.988235 0 0 0 0 1 0 0 0 0 0 0 0 0 0.7 0"/><feBlend in2="BackgroundImageFix" result="effect1_dropShadow"/><feColorMatrix in="SourceAlpha" values="0 0 0 0 0 0 0 0 0 0 0 0 0 0 0 0 0 0 127 0" result="hardAlpha"/><feOffset dy="4"/><feGaussianBlur stdDeviation="7.5"/><feComposite in2="hardAlpha" operator="out"/><feColorMatrix values="0 0 0 0 0.988235 0 0 0 0 1 0 0 0 0 0.027451 0 0 0 0.5 0"/><feBlend in2="effect1_dropShadow" result="effect2_dropShadow"/><feBlend in="SourceGraphic" in2="effect2_dropShadow" result="shape"/></filter><filter id="filter3_dd" x="-5.077" y="60.392" width="79.024" height="75" filterUnits="userSpaceOnUse" color-interpolation-filters="sRGB"><feFlood flood-opacity="0" result="BackgroundImageFix"/><feColorMatrix in="SourceAlpha" values="0 0 0 0 0 0 0 0 0 0 0 0 0 0 0 0 0 0 127 0" result="hardAlpha"/><feOffset dy="2"/><feGaussianBlur stdDeviation="10"/><feComposite in2="hardAlpha" operator="out"/><feColorMatrix values="0 0 0 0 0.65098 0 0 0 0 0 0 0 0 0 1 0 0 0 0.8 0"/><feBlend in2="BackgroundImageFix" result="effect1_dropShadow"/><feColorMatrix in="SourceAlpha" values="0 0 0 0 0 0 0 0 0 0 0 0 0 0 0 0 0 0 127 0" result="hardAlpha"/><feOffset dy="2"/><feGaussianBlur stdDeviation="7.5"/><feComposite in2="hardAlpha" operator="out"/><feColorMatrix values="0 0 0 0 0.65098 0 0 0 0 0 0 0 0 0 1 0 0 0 0.5 0"/><feBlend in2="effect1_dropShadow" result="effect2_dropShadow"/><feBlend in="SourceGraphic" in2="effect2_dropShadow" result="shape"/></filter><filter id="filter4_d" x="-6.167" y="-12.392" width="82" height="83.784" filterUnits="userSpaceOnUse" color-interpolation-filters="sRGB"><feFlood flood-opacity="0" result="BackgroundImageFix"/><feColorMatrix in="SourceAlpha" values="0 0 0 0 0 0 0 0 0 0 0 0 0 0 0 0 0 0 127 0" result="hardAlpha"/><feOffset dy="2"/><feGaussianBlur stdDeviation="10"/><feComposite in2="hardAlpha" operator="out"/><feColorMatrix values="0 0 0 0 0.988235 0 0 0 0 1 0 0 0 0 0.027451 0 0 0 0.8 0"/><feBlend in2="BackgroundImageFix" result="effect1_dropShadow"/><feBlend in="SourceGraphic" in2="effect1_dropShadow" result="shape"/></filter><clipPath id="clip0"><path fill="#fff" transform="translate(.967)" d="M0 0h67v335H0z"/></clipPath></defs></svg>