<svg width="67" height="335" fill="none" xmlns="http://www.w3.org/2000/svg"><g clip-path="url(#clip0)"><g filter="url(#filter0_dd)" fill="#38CB21"><path d="M37.579 102.231h-4.692c-.469 0-.703-.228-.938-.457s-.469-.458-.469-.916v-1.83c0-3.891 0-8.01.938-10.757.938-2.517 3.05-4.577 5.395-5.492 1.877-.687 3.519-.458 5.16.228 2.581 1.374 2.816 3.662 3.05 4.806v.23h.235c1.173.228 3.518.457 4.926 2.746.938 1.373.938 3.204.469 5.034-.704 2.289-2.815 4.349-5.395 5.493-2.346.915-5.395.915-8.68.915zm-3.05-2.746h3.284c2.815 0 5.63 0 7.506-.686 1.877-.687 3.284-2.06 3.754-3.662.234-1.144.234-2.06-.235-2.746-.704-1.145-1.642-1.374-2.815-1.374-.704 0-1.407-.228-2.11-.686-.47-.458-.705-1.144-.705-1.83-.234-.916-.234-2.06-1.642-2.747-.703-.458-1.642-.458-2.814 0-1.408.229-2.815 1.602-3.519 3.433-.938 2.288-.938 5.95-.938 9.612l.234.686c-.234 0 0 0 0 0z"/><path d="M25.616 119.167c-.938 0-1.876-.229-2.58-.458-3.05-1.144-3.05-3.662-3.284-5.035v-.229h-.235c-1.172 0-3.753-.229-5.16-2.975-.704-1.602-.704-3.662 0-5.492.938-2.06 2.815-3.891 5.16-4.806 2.815-.687 6.334-.687 10.087-.687h3.284c.469 0 .703.229.938.458s.47.686.47.915v2.747c0 3.89.234 7.323-.94 10.069-.937 2.289-2.58 4.12-4.925 5.035a8.94 8.94 0 01-2.815.458zm-8.21-9.612c.47 1.144 1.408 1.373 2.58 1.373.704 0 1.642 0 2.112.686.469.458.703 1.374.703 2.06 0 1.373.235 2.06 1.408 2.518.938.457 2.11.457 3.284 0a6.803 6.803 0 003.284-3.433c.703-2.06.703-5.493.703-8.926v-1.373h-1.876c-3.284 0-6.803 0-8.68.687-1.641.686-3.049 1.831-3.518 3.204-.469.915-.469 2.288 0 3.204z"/><path d="M40.394 119.167c-.939 0-1.877-.229-2.58-.458-2.346-.915-3.988-2.746-5.161-5.035-1.173-2.746-1.173-6.179-1.173-10.069v-2.747c0-.457.235-.686.47-.915.234-.229.468-.458.937-.458h3.284c3.753-.229 7.272-.229 9.618.687 2.58.915 4.456 2.746 5.395 5.035.703 1.83.703 3.661 0 5.263-1.173 2.518-3.753 2.747-4.926 2.975h-.235v.229c0 1.145-.234 3.662-3.05 5.035-.703.229-1.641.458-2.58.458zm-6.1-16.936v1.374c0 3.204 0 6.636.94 8.696.703 1.602 1.876 2.975 3.518 3.662 1.172.457 2.345.457 3.283 0 1.173-.458 1.408-1.373 1.408-2.518 0-.686 0-1.602.704-2.059.469-.458 1.407-.687 2.11-.687 1.174-.229 2.112-.229 2.816-1.373.469-.915.469-1.831 0-2.975-.704-1.602-1.877-2.746-3.754-3.433-1.876-.687-5.395-.687-8.444-.458-1.173-.229-1.877-.229-2.58-.229z"/><path d="M28.431 102.231c-3.05 0-5.864-.228-7.975-.915-2.58-.915-4.692-2.746-5.395-5.035-.939-1.83-.939-3.662 0-5.264 1.407-2.746 3.753-2.975 4.926-2.975 0-1.144.234-3.661 3.049-5.034 1.642-.916 3.518-.916 5.395-.23 2.346.916 4.222 2.747 5.395 5.264.938 2.289.938 5.493.704 8.926v3.89c0 .458-.235.687-.47.916-.468.229-.703.457-1.172.457H28.43zm-3.988-16.706c-1.407.686-1.407 1.602-1.407 2.517 0 .687 0 1.373-.704 2.06s-1.407.687-2.11.687c-1.174 0-2.112.228-2.816 1.602-.469.915-.469 1.83 0 2.975.704 1.602 2.111 2.746 3.753 3.433 2.346.915 5.865.686 9.383.686h.704V96.74c0-2.975.234-5.95-.47-7.781-.468-1.602-1.876-2.975-3.283-3.662-1.173-.229-2.111-.229-3.05.229zm5.395 42.796c-.234 0-.704-.229-.938-.458-.704-.457-.704-1.373-.235-2.059 3.988-4.577 2.815-13.045 2.815-13.045 0-.687.704-1.373 1.408-1.373.703 0 1.407.457 1.642 1.144 0 .458 1.407 9.841-3.519 15.333-.235.229-.704.458-1.173.458z"/></g><g filter="url(#filter1_dd)" fill="#FAFF00"><path d="M24.686 300.906c-.746 0-1.492-.5-1.492-1.25s.497-1.5 1.243-1.75l4.726-.75 2.238-5.25c.249-.75 1.244-1.25 1.99-.75s1.243 1.5.746 2.25l-2.487 5.75c-.249.5-.498 1-1.244 1l-5.72.75c.249 0 .249 0 0 0z"/><path d="M19.463 323.656c-.249 0-.746 0-.995-.25-.497-.25-.746-1-.497-1.5l2.487-14.75-10.694-10.5c-.498-.25-.498-1-.498-1.5.249-.5.746-1 1.244-1l14.673-2.25 6.715-13.5c.249-.5.746-.75 1.493-.75.497 0 .994.25 1.243.75l6.715 13.5 14.674 2.25c.497 0 .994.5 1.243 1 .249.5 0 1.25-.497 1.5l-10.695 10.5 2.487 14.75c0 .5-.248 1.25-.497 1.5-.497.25-.995.5-1.492 0l-13.181-7-13.182 7c-.249.25-.497.25-.746.25zm-5.472-27l8.954 8.75c.249.25.497.75.497 1.25l-2.238 12.5 11.192-6c.497-.25.995-.25 1.492 0l11.192 6-2.239-12.5c0-.5 0-1 .498-1.25l8.953-8.75-12.435-1.75c-.498 0-.995-.5-1.244-.75l-5.222-11.5-5.72 11.5c-.25.25-.498.75-.996.75l-12.684 1.75z"/></g><g filter="url(#filter2_dd)" fill="#FAFF00"><path d="M24.686 165.595c-.746 0-1.492-.5-1.492-1.25s.497-1.5 1.243-1.75l4.726-.75 2.238-5.25c.249-.75 1.244-1.25 1.99-.75s1.243 1.5.746 2.25l-2.487 5.75c-.249.5-.498 1-1.244 1l-5.72.75c.249 0 .249 0 0 0z"/><path d="M19.463 188.345c-.249 0-.746 0-.995-.25-.497-.25-.746-1-.497-1.5l2.487-14.75-10.694-10.5c-.498-.25-.498-1-.498-1.5.249-.5.746-1 1.244-1l14.673-2.25 6.715-13.5c.249-.5.746-.75 1.493-.75.497 0 .994.25 1.243.75l6.715 13.5 14.674 2.25c.497 0 .994.5 1.243 1 .249.5 0 1.25-.497 1.5l-10.695 10.5 2.487 14.75c0 .5-.248 1.25-.497 1.5-.497.25-.995.5-1.492 0l-13.181-7-13.182 7c-.249.25-.497.25-.746.25zm-5.472-27l8.954 8.75c.249.25.497.75.497 1.25l-2.238 12.5 11.192-6c.497-.25.995-.25 1.492 0l11.192 6-2.239-12.5c0-.5 0-1 .498-1.25l8.953-8.75-12.435-1.75c-.498 0-.995-.5-1.244-.75l-5.222-11.5-5.72 11.5c-.25.25-.498.75-.996.75l-12.684 1.75z"/></g><g filter="url(#filter3_dd)" fill="#CB2121"><path d="M53.87 234.649l-16.68-19.286c-.736-.494-1.472-.989-2.453-.989-.736 0-1.717.495-2.208.989l-16.188 19.78c-.981 1.237-.981 2.72 0 3.956l16.68 19.286c.735.495 1.47.989 2.207.989.98 0 1.717-.494 2.207-.989l16.189-19.533c1.226-1.483 1.226-3.214.245-4.203zM35.227 256.16l-16.68-19.039 16.19-19.533 16.924 19.039-16.434 19.533z"/><path d="M39.642 225.995l-3.434-3.956c-.245-.247-.736-.495-1.226-.495s-.736.248-.981.495c-3.68 4.45-9.076 11.374-9.321 11.868-.49.495-.49 1.484 0 1.978.245.247.736.495.981.495s.736-.248.981-.495c0 0 .245-.247 8.34-10.385l2.207 2.473c.49.742 1.472.742 2.208.247.736-.742.736-1.731.245-2.225z"/></g><g filter="url(#filter4_dd)" fill="#FAFF00"><path d="M24.686 30.702c-.746 0-1.492-.5-1.492-1.25s.497-1.5 1.243-1.75l4.726-.75 2.238-5.25c.249-.75 1.244-1.25 1.99-.75s1.243 1.5.746 2.25l-2.487 5.75c-.249.5-.498 1-1.244 1l-5.72.75c.249 0 .249 0 0 0z"/><path d="M19.463 53.452c-.249 0-.746 0-.995-.25-.497-.25-.746-1-.497-1.5l2.487-14.75-10.694-10.5c-.498-.25-.498-1-.498-1.5.249-.5.746-1 1.244-1l14.673-2.25 6.715-13.5c.249-.5.746-.75 1.493-.75.497 0 .994.25 1.243.75l6.715 13.5 14.674 2.25c.497 0 .994.5 1.243 1 .249.5 0 1.25-.497 1.5l-10.695 10.5 2.487 14.75c0 .5-.248 1.25-.497 1.5-.497.25-.995.5-1.492 0l-13.181-7-13.182 7c-.249.25-.497.25-.746.25zm-5.472-27l8.954 8.75c.249.25.497.75.497 1.25l-2.238 12.5 11.192-6c.497-.25.995-.25 1.492 0l11.192 6-2.239-12.5c0-.5 0-1 .498-1.25l8.953-8.75-12.435-1.75c-.498 0-.995-.5-1.244-.75l-5.222-11.5-5.72 11.5c-.25.25-.498.75-.996.75l-12.684 1.75z"/></g></g><defs><filter id="filter0_dd" x="-1.171" y="69.289" width="68.132" height="76.032" filterUnits="userSpaceOnUse" color-interpolation-filters="sRGB"><feFlood flood-opacity="0" result="BackgroundImageFix"/><feColorMatrix in="SourceAlpha" values="0 0 0 0 0 0 0 0 0 0 0 0 0 0 0 0 0 0 127 0" result="hardAlpha"/><feOffset dy="2"/><feGaussianBlur stdDeviation="7.5"/><feComposite in2="hardAlpha" operator="out"/><feColorMatrix values="0 0 0 0 0.219608 0 0 0 0 0.796078 0 0 0 0 0.129412 0 0 0 1 0"/><feBlend in2="BackgroundImageFix" result="effect1_dropShadow"/><feColorMatrix in="SourceAlpha" values="0 0 0 0 0 0 0 0 0 0 0 0 0 0 0 0 0 0 127 0" result="hardAlpha"/><feOffset dy="2"/><feGaussianBlur stdDeviation="5"/><feComposite in2="hardAlpha" operator="out"/><feColorMatrix values="0 0 0 0 0.219608 0 0 0 0 0.796078 0 0 0 0 0.129412 0 0 0 0.5 0"/><feBlend in2="effect1_dropShadow" result="effect2_dropShadow"/><feBlend in="SourceGraphic" in2="effect2_dropShadow" result="shape"/></filter><filter id="filter1_dd" x="-5.734" y="264.656" width="78.098" height="78.039" filterUnits="userSpaceOnUse" color-interpolation-filters="sRGB"><feFlood flood-opacity="0" result="BackgroundImageFix"/><feColorMatrix in="SourceAlpha" values="0 0 0 0 0 0 0 0 0 0 0 0 0 0 0 0 0 0 127 0" result="hardAlpha"/><feOffset dy="2"/><feGaussianBlur stdDeviation="7.5"/><feComposite in2="hardAlpha" operator="out"/><feColorMatrix values="0 0 0 0 0.988235 0 0 0 0 1 0 0 0 0 0 0 0 0 0.7 0"/><feBlend in2="BackgroundImageFix" result="effect1_dropShadow"/><feColorMatrix in="SourceAlpha" values="0 0 0 0 0 0 0 0 0 0 0 0 0 0 0 0 0 0 127 0" result="hardAlpha"/><feOffset dy="4"/><feGaussianBlur stdDeviation="7.5"/><feComposite in2="hardAlpha" operator="out"/><feColorMatrix values="0 0 0 0 0.988235 0 0 0 0 1 0 0 0 0 0.027451 0 0 0 0.5 0"/><feBlend in2="effect1_dropShadow" result="effect2_dropShadow"/><feBlend in="SourceGraphic" in2="effect2_dropShadow" result="shape"/></filter><filter id="filter2_dd" x="-5.734" y="129.345" width="78.098" height="78.039" filterUnits="userSpaceOnUse" color-interpolation-filters="sRGB"><feFlood flood-opacity="0" result="BackgroundImageFix"/><feColorMatrix in="SourceAlpha" values="0 0 0 0 0 0 0 0 0 0 0 0 0 0 0 0 0 0 127 0" result="hardAlpha"/><feOffset dy="2"/><feGaussianBlur stdDeviation="7.5"/><feComposite in2="hardAlpha" operator="out"/><feColorMatrix values="0 0 0 0 0.988235 0 0 0 0 1 0 0 0 0 0 0 0 0 0.7 0"/><feBlend in2="BackgroundImageFix" result="effect1_dropShadow"/><feColorMatrix in="SourceAlpha" values="0 0 0 0 0 0 0 0 0 0 0 0 0 0 0 0 0 0 127 0" result="hardAlpha"/><feOffset dy="4"/><feGaussianBlur stdDeviation="7.5"/><feComposite in2="hardAlpha" operator="out"/><feColorMatrix values="0 0 0 0 0.988235 0 0 0 0 1 0 0 0 0 0.027451 0 0 0 0.5 0"/><feBlend in2="effect1_dropShadow" result="effect2_dropShadow"/><feBlend in="SourceGraphic" in2="effect2_dropShadow" result="shape"/></filter><filter id="filter3_dd" x=".605" y="201.374" width="68.972" height="75" filterUnits="userSpaceOnUse" color-interpolation-filters="sRGB"><feFlood flood-opacity="0" result="BackgroundImageFix"/><feColorMatrix in="SourceAlpha" values="0 0 0 0 0 0 0 0 0 0 0 0 0 0 0 0 0 0 127 0" result="hardAlpha"/><feOffset dy="2"/><feGaussianBlur stdDeviation="7.5"/><feComposite in2="hardAlpha" operator="out"/><feColorMatrix values="0 0 0 0 0.9875 0 0 0 0 0.0781771 0 0 0 0 0.0781771 0 0 0 1 0"/><feBlend in2="BackgroundImageFix" result="effect1_dropShadow"/><feColorMatrix in="SourceAlpha" values="0 0 0 0 0 0 0 0 0 0 0 0 0 0 0 0 0 0 127 0" result="hardAlpha"/><feOffset dy="2"/><feGaussianBlur stdDeviation="5"/><feComposite in2="hardAlpha" operator="out"/><feColorMatrix values="0 0 0 0 0.796078 0 0 0 0 0.129412 0 0 0 0 0.129412 0 0 0 0.5 0"/><feBlend in2="effect1_dropShadow" result="effect2_dropShadow"/><feBlend in="SourceGraphic" in2="effect2_dropShadow" result="shape"/></filter><filter id="filter4_dd" x="-5.734" y="-5.548" width="78.098" height="78.039" filterUnits="userSpaceOnUse" color-interpolation-filters="sRGB"><feFlood flood-opacity="0" result="BackgroundImageFix"/><feColorMatrix in="SourceAlpha" values="0 0 0 0 0 0 0 0 0 0 0 0 0 0 0 0 0 0 127 0" result="hardAlpha"/><feOffset dy="2"/><feGaussianBlur stdDeviation="7.5"/><feComposite in2="hardAlpha" operator="out"/><feColorMatrix values="0 0 0 0 0.988235 0 0 0 0 1 0 0 0 0 0 0 0 0 0.7 0"/><feBlend in2="BackgroundImageFix" result="effect1_dropShadow"/><feColorMatrix in="SourceAlpha" values="0 0 0 0 0 0 0 0 0 0 0 0 0 0 0 0 0 0 127 0" result="hardAlpha"/><feOffset dy="4"/><feGaussianBlur stdDeviation="7.5"/><feComposite in2="hardAlpha" operator="out"/><feColorMatrix values="0 0 0 0 0.988235 0 0 0 0 1 0 0 0 0 0.027451 0 0 0 0.5 0"/><feBlend in2="effect1_dropShadow" result="effect2_dropShadow"/><feBlend in="SourceGraphic" in2="effect2_dropShadow" result="shape"/></filter><clipPath id="clip0"><path fill="#fff" d="M0 0h67v335H0z"/></clipPath></defs></svg>