<svg width="67" height="335" fill="none" xmlns="http://www.w3.org/2000/svg"><g clip-path="url(#clip0)"><g filter="url(#filter0_dd)" fill="#FAFF00"><path d="M24.692 165.087c-.746 0-1.492-.5-1.492-1.25s.497-1.5 1.243-1.75l4.726-.75 2.238-5.25c.249-.75 1.244-1.25 1.99-.75s1.243 1.5.746 2.25l-2.487 5.75c-.249.5-.498 1-1.244 1l-5.72.75c.249 0 .249 0 0 0z"/><path d="M19.469 187.837c-.249 0-.746 0-.995-.25-.497-.25-.746-1-.497-1.5l2.487-14.75-10.695-10.5c-.497-.25-.497-1-.497-1.5.249-.5.746-1 1.243-1l14.674-2.25 6.715-13.5c.249-.5.746-.75 1.492-.75.498 0 .995.25 1.244.75l6.715 13.5 14.673 2.25c.498 0 .995.5 1.244 1s0 1.25-.497 1.5l-10.695 10.5 2.487 14.75c0 .5-.248 1.25-.497 1.5-.498.25-.995.5-1.492 0l-13.182-7-13.181 7c-.249.25-.497.25-.746.25zm-5.472-27l8.954 8.75c.248.25.497.75.497 1.25l-2.238 12.5 11.191-6a1.58 1.58 0 011.493 0l11.191 6-2.238-12.5c0-.5 0-1 .497-1.25l8.954-8.75-12.435-1.75c-.498 0-.995-.5-1.244-.75l-5.223-11.5-5.72 11.5c-.249.25-.497.75-.995.75l-12.684 1.75z"/></g><g filter="url(#filter1_dd)"><path d="M39.189 253.482l-12.133-.221c-.661 0-1.103-.442-1.323-1.105 0-.442-1.544-8.174 2.206-15.023 2.426-4.198 3.97-6.186 5.073-7.732-.44-.221-1.103-.442-1.544-.442l-1.323-.663c-1.544-.663-1.986-.884-3.089-.221-.661.442-1.103 1.326-1.323 2.209-.441.884-1.103 2.43-2.427 2.21h-3.75c-.44 0-.661-.221-.882-.442a1.69 1.69 0 01-.441-1.105l.22-14.139c0-.663.662-1.326 1.324-1.326h4.632c.662 0 1.324.663 1.324 1.326v.22l1.323-.662c2.868-1.326 6.177-1.105 9.706.883 2.427 1.326 5.074-.883 5.294-.883.221-.221.442-.221.883-.221h4.191c.662 0 1.323.663 1.323 1.325-.22 9.942-.44 12.593-5.514 19.884-4.412 6.407-2.206 14.14-2.206 14.14.22.441 0 .883-.22 1.104-.442.663-.883.884-1.324.884zm-10.809-3.093l9.265.221c-.442-3.093-.883-9.279 2.867-14.802 4.633-6.407 4.853-8.617 5.074-17.233h-2.427c-1.103.663-4.411 2.43-7.72.884-2.868-1.326-5.294-1.547-7.28-.663-1.985.884-2.647 1.988-2.647 2.209-.44.442-1.103.663-1.544.663-.662-.221-1.103-.884-1.103-1.326v-1.988h-1.764l-.221 11.488h1.985c0-.221.22-.441.22-.662.442-1.105 1.104-2.431 2.648-3.314 2.206-1.326 3.97-.663 5.294 0 .441.221.882.221 1.324.442 1.323.441 3.088.441 3.75-.221.44-.442 1.323-.442 1.764.221.441.441.441 1.325 0 1.767-.44.663-1.103 1.326-1.544 1.767-1.323 1.547-3.088 3.314-5.956 8.396-2.426 4.639-2.206 9.942-1.985 12.151z" fill="#CB2121"/></g><g filter="url(#filter2_dd)"><path d="M45.387 48.496H21.449c-.653 0-1.306-.674-1.306-1.347v-6.96l-3.917-10.775c-2.176.224-4.135-1.796-4.135-4.04 0-2.246 1.741-4.266 4.135-4.266 2.394 0 4.135 1.796 4.135 4.265 0 .45 0 .898-.218 1.123l8.052 6.06 2.394-9.203c-1.306-.898-1.959-2.245-1.959-3.592 0-2.245 1.741-4.265 4.135-4.265 2.176 0 4.135 1.795 4.135 4.265 0 1.347-.653 2.694-1.741 3.367l2.829 9.429 8.051-6.061c-.217-.45-.217-.898-.217-1.347 0-2.245 1.74-4.266 4.135-4.266 2.393 0 4.134 1.796 4.134 4.266 0 2.245-1.74 4.265-4.134 4.265L46.692 40.19v7.183c0 .674-.653 1.123-1.305 1.123zm-22.633-2.694h21.11v-6.286l3.481-10.551-9.357 6.96c-.436.224-.87.224-1.306.224-.218-.225-.653-.45-.653-.898l-3.047-10.327-2.61 10.327c-.218.449-.436.673-.871.898-.436.224-.87 0-1.306-.225l-9.14-6.959 3.7 10.326v6.51zm26.332-19.306h.871c.87 0 1.523-.674 1.523-1.572s-.653-1.571-1.523-1.571c-.87 0-1.524.673-1.524 1.571 0 .225 0 .45.218.898.217.45.435.674.435.674zm-32.86-2.694c-.87 0-1.523.673-1.523 1.571 0 .674.653 1.347 1.523 1.347h.87c0-.224.218-.224.218-.449.218-.224.218-.673.218-.898.217-.898-.436-1.571-1.306-1.571zm16.539-5.613c-.87 0-1.523.674-1.523 1.572 0 .673.652 1.347 1.088 1.347.217 0 .217 0 .435.224.218 0 .218-.224.435-.224.435-.225 1.088-.674 1.088-1.347 0-.898-.653-1.572-1.523-1.572z" fill="#FAFF00"/></g><g filter="url(#filter3_dd)" fill="#CB2121"><path d="M52.323 91.282c-1.621-3.238-4.633-5.55-8.339-6.013-.926-.231-1.853-.231-2.78-.231-4.632 0-6.949 2.081-8.338 3.932-1.39-1.62-3.706-3.701-8.108-3.701-.926 0-1.853 0-2.78.231-3.706.694-6.717 2.776-8.338 6.245-1.853 3.7-1.622 8.327.695 12.259 2.084 3.7 6.717 6.938 11.35 10.408 1.853 1.388 3.938 2.775 5.56 4.163.462.463 1.157.694 1.852.694.695 0 1.39-.231 1.853-.694l5.56-4.163c4.633-3.47 9.265-6.939 11.118-10.64 2.317-4.163 2.548-8.558.695-12.49zm-3.011 11.103c-2.548 4.625-9.96 9.02-15.983 13.877-6.254-4.857-13.898-9.252-16.446-13.646-3.707-6.245-.464-13.415 5.559-14.34.927-.232 1.621-.232 2.316-.232 6.023 0 6.718 4.858 8.34 4.858 1.39 0 2.084-5.089 8.338-5.089.695 0 1.39 0 2.085.231 6.023.926 9.266 7.864 5.791 14.341z"/><path d="M24.295 90.357c-2.085 0-3.938.694-5.096 2.082-1.39 1.62-1.853 3.7-1.39 6.245.232.694.695 1.156 1.39 1.156h.231c.927-.23 1.39-.925 1.159-1.85-.232-1.388 0-2.775.695-3.7a3.839 3.839 0 012.78-1.157h.23c.696 0 1.39-.694 1.39-1.388s-.694-1.388-1.39-1.388z"/></g><g filter="url(#filter4_d)"><path d="M53.976 313.672c0-4.354-1.393-8.479-4.177-11.916-1.857-10.542-5.801-17.875-11.602-20.396 0-3.667-2.32-6.417-5.105-6.417-3.017-.229-5.105 2.521-5.337 6.188-5.802 2.75-9.746 9.854-11.603 20.395-2.784 3.667-4.176 7.792-4.176 12.146 0 .229 0 .459.232.459 1.392 4.354 17.403 4.583 20.884 4.583 3.48 0 19.491-.229 20.884-4.583v-.459zm-35.503-10.541c.232-.23.232-.459.232-.688 1.624-10.083 5.569-17.187 10.906-19.021.696-.458.928-1.146.928-1.604v-.458c0-2.063 1.16-3.896 2.553-3.896 1.392 0 2.552 1.833 2.552 3.896v.458c0 .688.232 1.146.928 1.375 4.873 1.833 8.586 8.021 10.442 16.958-8.353-2.979-16.01-1.833-16.243-1.833-.696 0-1.16.688-.928 1.375 0 .688.696 1.146 1.392.917 0 0 8.122-1.146 16.707 2.291 1.857 2.292 3.017 4.813 3.713 7.563-5.105-2.063-15.315-2.063-18.1-2.063-2.784 0-12.994.23-18.099 2.063 0-2.521 1.16-5.271 3.017-7.333zm14.619 11.687c-2.32 0-4.177-1.604-4.41-3.667H37.5c-.464 2.292-2.32 3.667-4.408 3.667zm-7.194-3.437c.232 1.833 1.16 3.437 2.553 4.354-7.658-.229-12.299-1.375-13.69-2.292 1.391-.687 5.104-1.604 11.137-2.062zm11.37 4.354c1.393-1.146 2.32-2.521 2.553-4.354 6.265.458 9.978 1.375 11.138 2.062-1.16.917-5.801 2.063-13.69 2.292z" fill="#FAFF00"/></g></g><defs><filter id="filter0_dd" x="-5.728" y="128.837" width="78.098" height="78.039" filterUnits="userSpaceOnUse" color-interpolation-filters="sRGB"><feFlood flood-opacity="0" result="BackgroundImageFix"/><feColorMatrix in="SourceAlpha" values="0 0 0 0 0 0 0 0 0 0 0 0 0 0 0 0 0 0 127 0" result="hardAlpha"/><feOffset dy="2"/><feGaussianBlur stdDeviation="7.5"/><feComposite in2="hardAlpha" operator="out"/><feColorMatrix values="0 0 0 0 0.988235 0 0 0 0 1 0 0 0 0 0 0 0 0 0.7 0"/><feBlend in2="BackgroundImageFix" result="effect1_dropShadow"/><feColorMatrix in="SourceAlpha" values="0 0 0 0 0 0 0 0 0 0 0 0 0 0 0 0 0 0 127 0" result="hardAlpha"/><feOffset dy="4"/><feGaussianBlur stdDeviation="7.5"/><feComposite in2="hardAlpha" operator="out"/><feColorMatrix values="0 0 0 0 0.988235 0 0 0 0 1 0 0 0 0 0.027451 0 0 0 0.5 0"/><feBlend in2="effect1_dropShadow" result="effect2_dropShadow"/><feBlend in="SourceGraphic" in2="effect2_dropShadow" result="shape"/></filter><filter id="filter1_dd" x="-1.767" y="199.482" width="70.221" height="78" filterUnits="userSpaceOnUse" color-interpolation-filters="sRGB"><feFlood flood-opacity="0" result="BackgroundImageFix"/><feColorMatrix in="SourceAlpha" values="0 0 0 0 0 0 0 0 0 0 0 0 0 0 0 0 0 0 127 0" result="hardAlpha"/><feOffset dy="4"/><feGaussianBlur stdDeviation="10"/><feComposite in2="hardAlpha" operator="out"/><feColorMatrix values="0 0 0 0 0.796078 0 0 0 0 0.129412 0 0 0 0 0.129412 0 0 0 0.8 0"/><feBlend in2="BackgroundImageFix" result="effect1_dropShadow"/><feColorMatrix in="SourceAlpha" values="0 0 0 0 0 0 0 0 0 0 0 0 0 0 0 0 0 0 127 0" result="hardAlpha"/><feOffset dy="2"/><feGaussianBlur stdDeviation="7.5"/><feComposite in2="hardAlpha" operator="out"/><feColorMatrix values="0 0 0 0 0.796078 0 0 0 0 0.129412 0 0 0 0 0.129412 0 0 0 0.5 0"/><feBlend in2="effect1_dropShadow" result="effect2_dropShadow"/><feBlend in="SourceGraphic" in2="effect2_dropShadow" result="shape"/></filter><filter id="filter2_dd" x="-7.909" y="-2.504" width="82" height="73" filterUnits="userSpaceOnUse" color-interpolation-filters="sRGB"><feFlood flood-opacity="0" result="BackgroundImageFix"/><feColorMatrix in="SourceAlpha" values="0 0 0 0 0 0 0 0 0 0 0 0 0 0 0 0 0 0 127 0" result="hardAlpha"/><feOffset dy="2"/><feGaussianBlur stdDeviation="10"/><feComposite in2="hardAlpha" operator="out"/><feColorMatrix values="0 0 0 0 0.988235 0 0 0 0 1 0 0 0 0 0.027451 0 0 0 0.8 0"/><feBlend in2="BackgroundImageFix" result="effect1_dropShadow"/><feColorMatrix in="SourceAlpha" values="0 0 0 0 0 0 0 0 0 0 0 0 0 0 0 0 0 0 127 0" result="hardAlpha"/><feOffset dy="2"/><feGaussianBlur stdDeviation="7.5"/><feComposite in2="hardAlpha" operator="out"/><feColorMatrix values="0 0 0 0 0.980392 0 0 0 0 1 0 0 0 0 0 0 0 0 0.5 0"/><feBlend in2="effect1_dropShadow" result="effect2_dropShadow"/><feBlend in="SourceGraphic" in2="effect2_dropShadow" result="shape"/></filter><filter id="filter3_dd" x="-7.596" y="67.038" width="81.154" height="74.231" filterUnits="userSpaceOnUse" color-interpolation-filters="sRGB"><feFlood flood-opacity="0" result="BackgroundImageFix"/><feColorMatrix in="SourceAlpha" values="0 0 0 0 0 0 0 0 0 0 0 0 0 0 0 0 0 0 127 0" result="hardAlpha"/><feOffset dy="2"/><feGaussianBlur stdDeviation="10"/><feComposite in2="hardAlpha" operator="out"/><feColorMatrix values="0 0 0 0 0.796078 0 0 0 0 0.129412 0 0 0 0 0.129412 0 0 0 0.8 0"/><feBlend in2="BackgroundImageFix" result="effect1_dropShadow"/><feColorMatrix in="SourceAlpha" values="0 0 0 0 0 0 0 0 0 0 0 0 0 0 0 0 0 0 127 0" result="hardAlpha"/><feOffset dy="2"/><feGaussianBlur stdDeviation="5"/><feComposite in2="hardAlpha" operator="out"/><feColorMatrix values="0 0 0 0 0.796078 0 0 0 0 0.129412 0 0 0 0 0.129412 0 0 0 0.5 0"/><feBlend in2="effect1_dropShadow" result="effect2_dropShadow"/><feBlend in="SourceGraphic" in2="effect2_dropShadow" result="shape"/></filter><filter id="filter4_d" x="-8.024" y="256.93" width="82" height="83.784" filterUnits="userSpaceOnUse" color-interpolation-filters="sRGB"><feFlood flood-opacity="0" result="BackgroundImageFix"/><feColorMatrix in="SourceAlpha" values="0 0 0 0 0 0 0 0 0 0 0 0 0 0 0 0 0 0 127 0" result="hardAlpha"/><feOffset dy="2"/><feGaussianBlur stdDeviation="10"/><feComposite in2="hardAlpha" operator="out"/><feColorMatrix values="0 0 0 0 0.988235 0 0 0 0 1 0 0 0 0 0.027451 0 0 0 0.8 0"/><feBlend in2="BackgroundImageFix" result="effect1_dropShadow"/><feBlend in="SourceGraphic" in2="effect1_dropShadow" result="shape"/></filter><clipPath id="clip0"><path fill="#fff" d="M0 0h67v335H0z"/></clipPath></defs></svg>