<svg width="68" height="335" fill="none" xmlns="http://www.w3.org/2000/svg"><g clip-path="url(#clip0)"><g filter="url(#filter0_dd)"><path d="M29.477 322.024c-6.761 0-13.29-2.508-18.42-7.524-.466-.456-.466-1.368 0-2.051.467-.456 1.4-.456 2.1 0 9.093 8.891 23.782 8.891 32.875 0 9.093-8.892 9.093-23.254 0-32.146-.466-.456-.466-1.367 0-2.051.466-.456 1.399-.456 2.098 0 10.26 10.031 10.26 26.217 0 36.02-5.362 5.244-11.89 7.752-18.653 7.752z" fill="#38CB21"/><path d="M39.27 308.117c.773 0 1.399-.612 1.399-1.368 0-.755-.626-1.368-1.399-1.368s-1.399.613-1.399 1.368c0 .756.626 1.368 1.4 1.368zm-16.088 2.28c.773 0 1.4-.613 1.4-1.368 0-.756-.627-1.368-1.4-1.368-.772 0-1.399.612-1.399 1.368 0 .755.627 1.368 1.4 1.368z" fill="red"/><path d="M29.477 317.008c-5.596 0-10.725-2.052-14.689-5.927-.233-.228-.466-.684-.466-.912 0-.456.233-.684.466-.912l27.513-27.13c.466-.456 1.399-.456 2.099 0 3.963 3.876 6.062 8.891 6.062 14.363 0 5.471-2.099 10.487-6.063 14.363-4.196 3.875-9.326 6.155-14.922 6.155zm-11.658-7.067c6.995 5.927 17.72 5.699 24.482-.912 3.497-3.42 5.363-7.751 5.363-12.539 0-4.332-1.632-8.207-4.43-11.399l-25.415 24.85z" fill="#CB2121"/><path d="M43 289.879c.467.456.467 1.367 0 2.051-.466.456-1.398.456-2.098 0-.466-.456-.466-1.367 0-2.051.466-.456 1.399-.456 2.098 0zm.467 8.435c.467.456.467 1.368 0 2.052-.466.456-1.399.456-2.098 0-.466-.456-.466-1.368 0-2.052.466-.456 1.399-.456 2.098 0zm-6.994.456c.772 0 1.399-.613 1.399-1.368 0-.756-.627-1.368-1.4-1.368-.772 0-1.398.612-1.398 1.368 0 .755.626 1.368 1.399 1.368zm-5.597 7.295c.773 0 1.399-.612 1.399-1.368 0-.755-.626-1.368-1.399-1.368s-1.399.613-1.399 1.368c0 .756.626 1.368 1.399 1.368zm0 6.384c.773 0 1.399-.613 1.399-1.368 0-.756-.626-1.368-1.399-1.368s-1.399.612-1.399 1.368c0 .755.626 1.368 1.399 1.368z" fill="red"/></g><g filter="url(#filter1_dd)"><path d="M47.808 230.738c-.699 0-1.164-.453-1.397-1.133-3.028-10.877-12.809-10.877-13.041-10.877-.466.227-.932-.226-1.165-.68-.233-.453 0-1.133.466-1.586 5.356-4.532 10.48-3.625 13.74-1.133 3.726 2.946 6.054 9.064 2.794 14.729-.466.453-.931.68-1.397.68zm-10.712-14.049c3.26.906 7.685 2.946 10.479 8.384.233-3.172-1.164-6.118-3.26-7.704-1.863-1.587-4.658-1.813-7.22-.68z" fill="#38CB21"/><path d="M30.575 224.393c-.465 0-.931-.227-1.164-.453-.233-.227-3.26-4.079-2.329-7.931.466-2.04 1.863-3.626 4.192-4.759.466-.453 1.397-.226 1.63.453.466.68 0 1.587-.699 1.813-1.397.68-2.328 1.813-2.561 2.946-.466 2.719 1.863 5.665 1.863 5.665.466.68.466 1.36-.233 2.039-.233.227-.466.227-.699.227z" fill="#38CB21"/><path d="M31.274 257.024c-8.15 0-14.672-8.158-14.672-17.902 0-6.345 2.562-12.236 6.754-15.182 3.26-2.266 7.452-2.946 11.877-1.586h.233c5.589 1.813 10.246 9.29 10.246 16.542 0 10.197-6.52 18.128-14.438 18.128zm-3.26-32.178c-1.165.227-2.096.68-3.028 1.36-3.493 2.493-5.589 7.478-5.589 12.916 0 8.385 5.356 15.183 11.644 15.183s11.644-6.798 11.644-15.183c0-7.024-4.192-12.689-8.151-14.049h-.233c-1.164-.453-2.794.453-3.493 1.133-2.562 1.813-5.123 5.892-4.89 10.197 0 .68-.466 1.36-1.398 1.36-.698 0-1.397-.453-1.397-1.36-.233-4.079 1.63-8.837 4.89-11.557z" fill="#A600FF"/></g><g filter="url(#filter2_dd)" fill="#FAFF00"><path d="M31.596 154.024c.89 0 1.613-.723 1.613-1.616a1.614 1.614 0 10-3.225 0c0 .893.722 1.616 1.612 1.616zm6.449 1.384a1.614 1.614 0 000-3.23c-.89 0-1.612.723-1.612 1.615s.722 1.615 1.612 1.615zm-12.899 0c.891 0 1.613-.723 1.613-1.615s-.722-1.615-1.613-1.615c-.89 0-1.612.723-1.612 1.615s.722 1.615 1.613 1.615z"/><path d="M50.714 184.024H37.585c-.691 0-1.382-.693-1.382-1.385v-6c0-.692.69-1.384 1.382-1.384h2.764c.921-3.462 1.152-9-1.152-12.462-1.612-2.077-4.146-3.231-7.6-3.231-3.456 0-5.99 1.154-7.602 3.231-2.534 3.462-2.073 9.231-1.382 12.462h2.994c.691 0 1.383.692 1.383 1.384v6c0 .692-.692 1.385-1.383 1.385H12.478c-.69 0-1.382-.693-1.382-1.385v-6c0-.692.691-1.384 1.382-1.384h2.073c-1.151-2.077-2.073-4.616-2.303-7.154-.921-6 .921-12 4.607-16.385 3.685-4.385 8.983-6.692 14.51-6.692 5.529 0 10.827 2.307 14.512 6.692 3.916 4.385 5.528 10.615 4.837 16.615-.46 2.539-1.151 4.847-2.303 7.154h2.303c.691 0 1.382.693 1.382 1.385v6c0 .461-.69 1.154-1.382 1.154zm-11.747-2.769h10.365v-3.462h-3.455c-.46 0-.921-.231-1.152-.692-.23-.462-.23-.923.23-1.385a19.253 19.253 0 003.226-8.077c.69-5.308-.691-10.384-4.147-14.308-3.224-3.692-7.6-5.538-12.668-5.538s-9.214 1.846-12.438 5.538c-3.225 3.924-4.837 9.231-3.916 14.539.46 3 1.612 5.538 3.225 8.077.23.461.46.923.23 1.384-.23.462-.691.693-1.152.693H13.86v3.461h10.365v-3.461h-2.533c-.691 0-1.152-.462-1.382-.923-1.152-3.693-2.073-11.077 1.382-15.923 2.073-2.77 5.297-4.385 9.674-4.385 4.376 0 7.831 1.385 9.904 4.385 3.455 4.846 2.534 12.461 1.382 15.692-.23.461-.69.923-1.382.923h-2.533v3.462h.23z"/></g><g filter="url(#filter3_dd)" fill="#A600FF"><path d="M50.602 100.357c-.232-5-3.244-9.047-7.646-10.714v-.953c-.232-6.666-5.33-11.666-11.586-11.666h-.231c-6.488.238-11.354 5.714-11.354 12.143v.952c-4.17 1.905-7.415 6.19-7.183 11.429.232 6.19 4.634 10.952 10.427 11.428 0 .238-.232.714-.232.953 0 1.666 1.159 3.095 3.476 3.095.695 0 1.39-.238 2.317-.238 1.158-.238 2.317-.476 3.475-.476h.232c1.159 0 2.086.238 3.244.238.927.238 1.622.238 2.317.238 1.159 0 2.086-.238 2.78-.953.696-.714.927-1.428.927-2.381 0-.476 0-.714-.231-.952 5.329-1.19 9.268-6.19 9.268-12.143zm-11.354 9.286c-2.317 0-3.707-1.429-4.402-1.429-.232 0-.232 0-.463.238-.696.715.463 3.096 4.17 5 0 .238-.231.477-.695.477-1.158 0-3.244-.477-5.33-.477h-.23c-2.318 0-4.867.715-5.794.715-.231 0-.463 0-.463-.238 3.707-2.381 4.634-4.286 3.94-5.477-.233-.238-.233-.238-.464-.238-.927 0-2.55 1.905-4.866 1.905h-.232c-4.634 0-8.573-3.809-8.805-8.809-.232-4.762 3.476-8.81 7.878-9.048-.463-.953-.695-1.905-.695-3.095-.232-5 3.476-9.048 8.342-9.286h.231c4.634 0 8.573 3.81 8.805 8.81 0 1.19-.231 2.142-.463 3.333 4.402.238 7.878 4.047 8.11 8.571 0 4.762-3.708 9.048-8.574 9.048z"/><path d="M32.298 82.262c-1.39-.476-3.476.238-5.098 1.667-1.853 1.904-2.548 4.285-2.085 6.666.232.715.695 1.19 1.39 1.19h.232c.695-.237 1.159-.952 1.159-1.666-.464-2.143.463-3.333 1.158-4.048 1.159-.952 2.086-1.19 2.549-1.19.695.238 1.622-.238 1.854-.952.231-.715-.232-1.429-1.159-1.667z"/></g><g filter="url(#filter4_dd)" fill="#38CB21"><path d="M39.299 30.32h-4.691c-.47 0-.704-.23-.939-.458-.234-.229-.469-.458-.469-.915v-1.831c0-3.89 0-8.01.938-10.756.939-2.518 3.05-4.578 5.395-5.493 1.877-.687 3.519-.458 5.161.229 2.58 1.373 2.815 3.662 3.05 4.806v.229h.234c1.173.229 3.518.457 4.926 2.746.938 1.373.938 3.204.469 5.035-.704 2.288-2.815 4.348-5.395 5.492-2.346.916-5.395.916-8.679.916zm-3.05-2.747h3.284c2.815 0 5.63 0 7.507-.686 1.876-.687 3.284-2.06 3.753-3.662.234-1.144.234-2.06-.235-2.746-.703-1.144-1.642-1.373-2.815-1.373-.703 0-1.407-.23-2.11-.687-.47-.457-.704-1.144-.704-1.83-.235-.916-.235-2.06-1.642-2.747-.704-.458-1.642-.458-2.815 0-1.408.229-2.815 1.602-3.519 3.433-.938 2.289-.938 5.95-.938 9.612l.235.686c-.235 0 0 0 0 0z"/><path d="M27.336 47.255c-.938 0-1.876-.229-2.58-.458-3.05-1.144-3.05-3.661-3.284-5.035v-.228h-.234c-1.173 0-3.753-.23-5.16-2.976-.705-1.602-.705-3.661 0-5.492.937-2.06 2.814-3.89 5.16-4.806 2.814-.687 6.333-.687 10.086-.687h3.284c.47 0 .704.23.938.458.235.229.47.687.47.916v2.746c0 3.89.234 7.323-.939 10.07-.938 2.288-2.58 4.119-4.926 5.034a8.944 8.944 0 01-2.815.458zm-8.21-9.612c.47 1.144 1.408 1.373 2.58 1.373.704 0 1.643 0 2.112.687.469.457.703 1.373.703 2.06 0 1.373.235 2.06 1.408 2.517.938.457 2.111.457 3.284 0a6.8 6.8 0 003.284-3.433c.704-2.06.704-5.492.704-8.925v-1.373h-1.877c-3.284 0-6.803 0-8.679.686-1.642.687-3.05 1.83-3.518 3.204-.47.916-.47 2.289 0 3.204z"/><path d="M42.114 47.255c-.938 0-1.877-.229-2.58-.458-2.346-.915-3.988-2.746-5.161-5.034-1.173-2.747-1.173-6.18-1.173-10.07v-2.746c0-.458.235-.687.47-.916.234-.229.468-.458.938-.458h3.284c3.753-.228 7.271-.228 9.617.687 2.58.915 4.457 2.746 5.395 5.035.704 1.83.704 3.661 0 5.264-1.173 2.517-3.753 2.746-4.926 2.975h-.235v.229c0 1.144-.234 3.661-3.049 5.034-.704.23-1.642.458-2.58.458zM36.015 30.32v1.373c0 3.204 0 6.637.938 8.696.704 1.602 1.877 2.975 3.519 3.662 1.173.458 2.346.458 3.284 0 1.173-.458 1.407-1.373 1.407-2.517 0-.687 0-1.602.704-2.06.469-.458 1.407-.687 2.111-.687 1.173-.228 2.111-.228 2.815-1.373.469-.915.469-1.83 0-2.975-.704-1.602-1.877-2.746-3.753-3.433-1.877-.686-5.395-.686-8.445-.457-1.173-.23-1.876-.23-2.58-.23z"/><path d="M30.151 30.32c-3.05 0-5.864-.23-7.975-.916-2.58-.915-4.691-2.746-5.395-5.035-.938-1.83-.938-3.661 0-5.263 1.407-2.747 3.753-2.975 4.926-2.975 0-1.145.234-3.662 3.05-5.035 1.641-.916 3.518-.916 5.394-.229 2.346.915 4.222 2.746 5.395 5.264.939 2.288.939 5.492.704 8.925v3.89c0 .458-.235.687-.47.916-.468.229-.703.458-1.172.458h-4.457zm-3.987-16.707c-1.408.687-1.408 1.602-1.408 2.518 0 .686 0 1.373-.704 2.06-.703.686-1.407.686-2.11.686-1.174 0-2.112.229-2.816 1.602-.469.915-.469 1.83 0 2.975.704 1.602 2.112 2.746 3.754 3.433 2.345.915 5.864.686 9.382.686h.704v-2.746c0-2.975.235-5.95-.47-7.78-.468-1.603-1.876-2.976-3.283-3.663-1.173-.229-2.111-.229-3.05.23zm5.394 42.797c-.234 0-.703-.23-.938-.458-.704-.458-.704-1.373-.234-2.06 3.987-4.577 2.814-13.045 2.814-13.045 0-.686.704-1.373 1.408-1.373s1.407.458 1.642 1.144c0 .458 1.407 9.841-3.519 15.334-.234.229-.703.457-1.173.457z"/></g></g><defs><filter id="filter0_dd" x="-9.292" y="259.91" width="85.117" height="84.114" filterUnits="userSpaceOnUse" color-interpolation-filters="sRGB"><feFlood flood-opacity="0" result="BackgroundImageFix"/><feColorMatrix in="SourceAlpha" values="0 0 0 0 0 0 0 0 0 0 0 0 0 0 0 0 0 0 127 0" result="hardAlpha"/><feOffset dy="2"/><feGaussianBlur stdDeviation="10"/><feComposite in2="hardAlpha" operator="out"/><feColorMatrix values="0 0 0 0 0.796078 0 0 0 0 0.129412 0 0 0 0 0.129412 0 0 0 0.8 0"/><feBlend in2="BackgroundImageFix" result="effect1_dropShadow"/><feColorMatrix in="SourceAlpha" values="0 0 0 0 0 0 0 0 0 0 0 0 0 0 0 0 0 0 127 0" result="hardAlpha"/><feOffset dy="4"/><feGaussianBlur stdDeviation="7.5"/><feComposite in2="hardAlpha" operator="out"/><feColorMatrix values="0 0 0 0 0.796078 0 0 0 0 0.129412 0 0 0 0 0.129412 0 0 0 0.5 0"/><feBlend in2="effect1_dropShadow" result="effect2_dropShadow"/><feBlend in="SourceGraphic" in2="effect2_dropShadow" result="shape"/></filter><filter id="filter1_dd" x="1.603" y="198.014" width="64.155" height="76.009" filterUnits="userSpaceOnUse" color-interpolation-filters="sRGB"><feFlood flood-opacity="0" result="BackgroundImageFix"/><feColorMatrix in="SourceAlpha" values="0 0 0 0 0 0 0 0 0 0 0 0 0 0 0 0 0 0 127 0" result="hardAlpha"/><feOffset dy="2"/><feGaussianBlur stdDeviation="7.5"/><feComposite in2="hardAlpha" operator="out"/><feColorMatrix values="0 0 0 0 0.658824 0 0 0 0 0 0 0 0 0 1 0 0 0 0.7 0"/><feBlend in2="BackgroundImageFix" result="effect1_dropShadow"/><feColorMatrix in="SourceAlpha" values="0 0 0 0 0 0 0 0 0 0 0 0 0 0 0 0 0 0 127 0" result="hardAlpha"/><feOffset dy="2"/><feGaussianBlur stdDeviation="7.5"/><feComposite in2="hardAlpha" operator="out"/><feColorMatrix values="0 0 0 0 0.654902 0 0 0 0 0 0 0 0 0 1 0 0 0 0.5 0"/><feBlend in2="effect1_dropShadow" result="effect2_dropShadow"/><feBlend in="SourceGraphic" in2="effect2_dropShadow" result="shape"/></filter><filter id="filter2_dd" x="-8.904" y="127.024" width="81" height="79" filterUnits="userSpaceOnUse" color-interpolation-filters="sRGB"><feFlood flood-opacity="0" result="BackgroundImageFix"/><feColorMatrix in="SourceAlpha" values="0 0 0 0 0 0 0 0 0 0 0 0 0 0 0 0 0 0 127 0" result="hardAlpha"/><feOffset dy="2"/><feGaussianBlur stdDeviation="10"/><feComposite in2="hardAlpha" operator="out"/><feColorMatrix values="0 0 0 0 0.980392 0 0 0 0 1 0 0 0 0 0 0 0 0 0.8 0"/><feBlend in2="BackgroundImageFix" result="effect1_dropShadow"/><feColorMatrix in="SourceAlpha" values="0 0 0 0 0 0 0 0 0 0 0 0 0 0 0 0 0 0 127 0" result="hardAlpha"/><feOffset dy="2"/><feGaussianBlur stdDeviation="7.5"/><feComposite in2="hardAlpha" operator="out"/><feColorMatrix values="0 0 0 0 0.988235 0 0 0 0 1 0 0 0 0 0.027451 0 0 0 0.5 0"/><feBlend in2="effect1_dropShadow" result="effect2_dropShadow"/><feBlend in="SourceGraphic" in2="effect2_dropShadow" result="shape"/></filter><filter id="filter3_dd" x="-7.41" y="59.024" width="78.012" height="80" filterUnits="userSpaceOnUse" color-interpolation-filters="sRGB"><feFlood flood-opacity="0" result="BackgroundImageFix"/><feColorMatrix in="SourceAlpha" values="0 0 0 0 0 0 0 0 0 0 0 0 0 0 0 0 0 0 127 0" result="hardAlpha"/><feOffset dy="2"/><feGaussianBlur stdDeviation="10"/><feComposite in2="hardAlpha" operator="out"/><feColorMatrix values="0 0 0 0 0.65098 0 0 0 0 0 0 0 0 0 1 0 0 0 0.8 0"/><feBlend in2="BackgroundImageFix" result="effect1_dropShadow"/><feColorMatrix in="SourceAlpha" values="0 0 0 0 0 0 0 0 0 0 0 0 0 0 0 0 0 0 127 0" result="hardAlpha"/><feOffset dy="2"/><feGaussianBlur stdDeviation="7.5"/><feComposite in2="hardAlpha" operator="out"/><feColorMatrix values="0 0 0 0 0.65098 0 0 0 0 0 0 0 0 0 1 0 0 0 0.5 0"/><feBlend in2="effect1_dropShadow" result="effect2_dropShadow"/><feBlend in="SourceGraphic" in2="effect2_dropShadow" result="shape"/></filter><filter id="filter4_dd" x=".549" y="-2.622" width="68.132" height="76.032" filterUnits="userSpaceOnUse" color-interpolation-filters="sRGB"><feFlood flood-opacity="0" result="BackgroundImageFix"/><feColorMatrix in="SourceAlpha" values="0 0 0 0 0 0 0 0 0 0 0 0 0 0 0 0 0 0 127 0" result="hardAlpha"/><feOffset dy="2"/><feGaussianBlur stdDeviation="7.5"/><feComposite in2="hardAlpha" operator="out"/><feColorMatrix values="0 0 0 0 0.219608 0 0 0 0 0.796078 0 0 0 0 0.129412 0 0 0 1 0"/><feBlend in2="BackgroundImageFix" result="effect1_dropShadow"/><feColorMatrix in="SourceAlpha" values="0 0 0 0 0 0 0 0 0 0 0 0 0 0 0 0 0 0 127 0" result="hardAlpha"/><feOffset dy="2"/><feGaussianBlur stdDeviation="5"/><feComposite in2="hardAlpha" operator="out"/><feColorMatrix values="0 0 0 0 0.219608 0 0 0 0 0.796078 0 0 0 0 0.129412 0 0 0 0.5 0"/><feBlend in2="effect1_dropShadow" result="effect2_dropShadow"/><feBlend in="SourceGraphic" in2="effect2_dropShadow" result="shape"/></filter><clipPath id="clip0"><path fill="#fff" transform="translate(.101)" d="M0 0h67v335H0z"/></clipPath></defs></svg>