<svg width="67" height="335" fill="none" xmlns="http://www.w3.org/2000/svg"><g clip-path="url(#clip0)"><g filter="url(#filter0_dd)"><path d="M47.816 232.287c-.699 0-1.164-.453-1.397-1.133-3.027-10.877-12.808-10.877-13.041-10.877-.466.227-.932-.226-1.165-.679-.232-.454 0-1.133.466-1.587 5.356-4.532 10.48-3.625 13.74-1.133 3.726 2.946 6.055 9.065 2.794 14.73-.465.453-.931.679-1.397.679zm-10.712-14.049c3.26.906 7.685 2.946 10.48 8.384.232-3.172-1.165-6.118-3.261-7.704-1.863-1.586-4.657-1.813-7.22-.68z" fill="#38CB21"/><path d="M30.584 225.942c-.466 0-.932-.226-1.165-.453-.233-.226-3.26-4.079-2.328-7.931.465-2.039 1.863-3.625 4.191-4.758.466-.454 1.398-.227 1.63.453.466.68 0 1.586-.698 1.813-1.397.679-2.329 1.812-2.562 2.945-.466 2.72 1.863 5.665 1.863 5.665.466.68.466 1.36-.233 2.04-.233.226-.465.226-.698.226z" fill="#38CB21"/><path d="M31.282 258.573c-8.15 0-14.671-8.158-14.671-17.901 0-6.345 2.561-12.237 6.753-15.183 3.26-2.266 7.452-2.945 11.877-1.586h.233c5.589 1.813 10.246 9.291 10.246 16.542 0 10.197-6.52 18.128-14.438 18.128zm-3.26-32.177c-1.165.226-2.096.68-3.028 1.359-3.493 2.493-5.589 7.478-5.589 12.917 0 8.384 5.357 15.182 11.644 15.182 6.288 0 11.644-6.798 11.644-15.182 0-7.025-4.192-12.69-8.15-14.05h-.233c-1.165-.453-2.795.454-3.494 1.133-2.561 1.813-5.123 5.892-4.89 10.197 0 .68-.466 1.36-1.397 1.36-.699 0-1.398-.453-1.398-1.36-.233-4.078 1.63-8.837 4.89-11.556z" fill="#A600FF"/></g><g filter="url(#filter1_dd)" fill="#FAFF00"><path d="M24.435 165.015c-.746 0-1.493-.5-1.493-1.25s.498-1.5 1.244-1.75l4.725-.75 2.239-5.25c.248-.75 1.243-1.25 1.99-.75.745.5 1.243 1.5.745 2.25l-2.487 5.75c-.248.5-.497 1-1.243 1l-5.72.75c.248 0 .248 0 0 0z"/><path d="M19.212 187.765c-.25 0-.747 0-.995-.25-.498-.25-.746-1-.498-1.5l2.487-14.75-10.694-10.5c-.497-.25-.497-1-.497-1.5.248-.5.746-1 1.243-1l14.674-2.25 6.715-13.5c.248-.5.746-.75 1.492-.75.497 0 .995.25 1.243.75l6.715 13.5 14.674 2.25c.498 0 .995.5 1.244 1 .248.5 0 1.25-.498 1.5l-10.694 10.5 2.487 14.75c0 .5-.249 1.25-.497 1.5-.498.25-.995.5-1.493 0l-13.181-7-13.181 7c-.25.25-.498.25-.746.25zm-5.472-27l8.953 8.75c.25.25.498.75.498 1.25l-2.238 12.5 11.191-6c.498-.25.995-.25 1.492 0l11.192 6-2.238-12.5c0-.5 0-1 .497-1.25l8.954-8.75-12.436-1.75c-.497 0-.994-.5-1.243-.75l-5.223-11.5-5.72 11.5c-.249.25-.498.75-.995.75l-12.684 1.75z"/></g><g filter="url(#filter2_dd)" fill="#A600FF"><path d="M50.61 38.638c-.231-5-3.244-9.048-7.646-10.714v-.953c-.232-6.666-5.33-11.666-11.585-11.666h-.232c-6.488.238-11.354 5.714-11.354 12.143v.952c-4.17 1.905-7.414 6.19-7.183 11.428.232 6.191 4.634 10.953 10.427 11.43 0 .237-.232.713-.232.951 0 1.667 1.159 3.096 3.476 3.096.695 0 1.39-.238 2.317-.238 1.159-.239 2.317-.477 3.476-.477h.231c1.159 0 2.086.238 3.244.238.927.239 1.622.239 2.317.239 1.159 0 2.086-.239 2.78-.953.696-.714.928-1.428.928-2.38 0-.477 0-.715-.232-.953 5.33-1.19 9.268-6.19 9.268-12.143zm-11.353 9.286c-2.317 0-3.708-1.429-4.403-1.429-.231 0-.231 0-.463.238-.695.715.463 3.096 4.17 5 0 .238-.231.477-.695.477-1.158 0-3.243-.477-5.329-.477h-.232c-2.317 0-4.865.715-5.792.715-.232 0-.464 0-.464-.239 3.708-2.38 4.634-4.285 3.94-5.476-.232-.238-.232-.238-.464-.238-.927 0-2.549 1.905-4.866 1.905h-.232c-4.634 0-8.573-3.81-8.804-8.81-.232-4.762 3.475-8.81 7.878-9.047-.464-.953-.696-1.905-.696-3.095-.231-5 3.476-9.048 8.342-9.286h.232c4.634 0 8.573 3.81 8.805 8.81 0 1.19-.232 2.142-.464 3.333 4.403.238 7.878 4.047 8.11 8.571 0 4.762-3.707 9.048-8.573 9.048z"/><path d="M32.306 20.543c-1.39-.476-3.475.238-5.097 1.666-1.854 1.905-2.549 4.286-2.086 6.667.232.714.695 1.19 1.39 1.19h.232c.695-.238 1.159-.952 1.159-1.666-.463-2.143.463-3.333 1.158-4.048 1.159-.952 2.086-1.19 2.55-1.19.694.238 1.621-.238 1.853-.953.232-.714-.232-1.428-1.159-1.666z"/></g><g filter="url(#filter3_dd)" fill="#38CB21"><path d="M36.967 100.464h-4.691c-.47 0-.704-.229-.939-.458-.234-.228-.469-.457-.469-.915v-1.83c0-3.891 0-8.01.938-10.757.939-2.517 3.05-4.577 5.396-5.493 1.876-.686 3.518-.457 5.16.23 2.58 1.372 2.815 3.66 3.05 4.805v.229h.234c1.173.229 3.518.458 4.926 2.746.938 1.373.938 3.204.469 5.035-.704 2.289-2.815 4.348-5.395 5.493-2.346.915-5.395.915-8.68.915zm-3.05-2.746h3.285c2.814 0 5.63 0 7.506-.687 1.876-.686 3.284-2.06 3.753-3.661.234-1.145.234-2.06-.235-2.747-.703-1.144-1.642-1.373-2.815-1.373-.703 0-1.407-.229-2.11-.686-.47-.458-.704-1.145-.704-1.831-.235-.916-.235-2.06-1.642-2.746-.704-.458-1.642-.458-2.815 0-1.408.228-2.815 1.602-3.519 3.432-.938 2.289-.938 5.95-.938 9.612l.234.687c-.234 0 0 0 0 0z"/><path d="M25.004 117.399c-.938 0-1.876-.228-2.58-.457-3.05-1.145-3.05-3.662-3.284-5.035v-.229h-.234c-1.173 0-3.753-.229-5.16-2.975-.705-1.602-.705-3.662 0-5.493.937-2.059 2.814-3.89 5.16-4.806 2.814-.686 6.333-.686 10.086-.686h3.284c.47 0 .704.229.938.457.235.23.47.687.47.916v2.746c0 3.891.234 7.324-.939 10.07-.938 2.288-2.58 4.119-4.926 5.035a8.943 8.943 0 01-2.815.457zm-8.21-9.612c.47 1.145 1.408 1.374 2.58 1.374.704 0 1.643 0 2.112.686.469.458.703 1.373.703 2.06 0 1.373.235 2.06 1.408 2.517.938.458 2.111.458 3.284 0a6.799 6.799 0 003.284-3.433c.704-2.059.704-5.492.704-8.925v-1.373h-1.877c-3.284 0-6.803 0-8.679.686-1.642.687-3.05 1.831-3.519 3.204-.469.916-.469 2.289 0 3.204z"/><path d="M39.782 117.399c-.938 0-1.877-.228-2.58-.457-2.346-.916-3.988-2.747-5.161-5.035-1.173-2.746-1.173-6.179-1.173-10.07v-2.746c0-.458.235-.687.47-.915.234-.23.468-.458.938-.458h3.283c3.754-.229 7.272-.229 9.618.686 2.58.916 4.457 2.747 5.395 5.035.704 1.831.704 3.662 0 5.264-1.173 2.517-3.753 2.746-4.926 2.975h-.235v.229c0 1.144-.234 3.662-3.049 5.035-.704.229-1.642.457-2.58.457zm-6.099-16.935v1.373c0 3.204 0 6.637.938 8.697.704 1.602 1.877 2.975 3.519 3.661 1.173.458 2.345.458 3.284 0 1.173-.457 1.407-1.373 1.407-2.517 0-.687 0-1.602.704-2.06.469-.457 1.407-.686 2.11-.686 1.174-.229 2.112-.229 2.816-1.373.469-.916.469-1.831 0-2.975-.704-1.602-1.877-2.747-3.753-3.433-1.877-.687-5.395-.687-8.445-.458-1.173-.229-1.876-.229-2.58-.229z"/><path d="M27.82 100.464c-3.05 0-5.865-.229-7.976-.915-2.58-.916-4.692-2.747-5.395-5.035-.938-1.831-.938-3.662 0-5.264 1.407-2.746 3.753-2.975 4.926-2.975 0-1.144.234-3.662 3.05-5.035 1.641-.915 3.518-.915 5.394-.229 2.346.916 4.222 2.747 5.395 5.264.939 2.289.939 5.493.704 8.925v3.891c0 .458-.235.687-.47.915-.468.229-.703.458-1.172.458h-4.457zm-3.99-16.706c-1.407.686-1.407 1.602-1.407 2.517 0 .687 0 1.373-.704 2.06-.703.686-1.407.686-2.11.686-1.174 0-2.112.23-2.816 1.602-.469.916-.469 1.831 0 2.975.704 1.602 2.112 2.747 3.754 3.433 2.345.916 5.864.687 9.382.687h.704v-2.746c0-2.976.235-5.95-.47-7.781-.468-1.603-1.876-2.976-3.283-3.662-1.173-.23-2.111-.23-3.05.229zm5.396 42.796c-.234 0-.703-.229-.938-.458-.704-.458-.704-1.373-.235-2.06 3.988-4.577 2.815-13.044 2.815-13.044 0-.687.704-1.374 1.408-1.374.703 0 1.407.458 1.642 1.145 0 .457 1.407 9.84-3.519 15.333-.234.229-.704.458-1.173.458z"/></g><g filter="url(#filter4_dd)"><path d="M45.38 319.007H21.444c-.653 0-1.306-.673-1.306-1.347v-6.959l-3.917-10.775c-2.176.224-4.135-1.796-4.135-4.041s1.741-4.265 4.135-4.265c2.394 0 4.135 1.795 4.135 4.265 0 .449 0 .898-.218 1.122l8.052 6.062 2.394-9.205c-1.306-.897-1.959-2.244-1.959-3.591 0-2.245 1.741-4.266 4.135-4.266 2.176 0 4.135 1.796 4.135 4.266 0 1.347-.653 2.694-1.741 3.367l2.829 9.429 8.052-6.062c-.218-.449-.218-.898-.218-1.347 0-2.245 1.74-4.265 4.135-4.265 2.393 0 4.134 1.796 4.134 4.265 0 2.245-1.74 4.266-4.134 4.266l-3.264 10.775v7.184c0 .673-.653 1.122-1.306 1.122zm-22.631-2.694h21.109v-6.285l3.481-10.551-9.357 6.959c-.435.224-.87.224-1.306.224-.218-.224-.653-.449-.653-.898l-3.046-10.326-2.612 10.326c-.217.449-.435.674-.87.898-.436.225-.87 0-1.306-.224l-9.14-6.959 3.7 10.326v6.51zm26.331-19.306h.871c.87 0 1.523-.673 1.523-1.571 0-.898-.653-1.572-1.523-1.572-.87 0-1.524.674-1.524 1.572 0 .224 0 .449.218.898s.435.673.435.673zm-32.86-2.694c-.87 0-1.523.674-1.523 1.572 0 .673.653 1.347 1.523 1.347h.871c0-.225.217-.225.217-.449.218-.225.218-.674.218-.898.218-.898-.435-1.572-1.306-1.572zm16.539-5.612c-.87 0-1.523.674-1.523 1.572 0 .673.653 1.347 1.088 1.347.217 0 .217 0 .435.224.218 0 .218-.224.435-.224.435-.225 1.088-.674 1.088-1.347 0-.898-.652-1.572-1.523-1.572z" fill="#FAFF00"/></g></g><defs><filter id="filter0_dd" x="1.611" y="199.564" width="64.155" height="76.009" filterUnits="userSpaceOnUse" color-interpolation-filters="sRGB"><feFlood flood-opacity="0" result="BackgroundImageFix"/><feColorMatrix in="SourceAlpha" values="0 0 0 0 0 0 0 0 0 0 0 0 0 0 0 0 0 0 127 0" result="hardAlpha"/><feOffset dy="2"/><feGaussianBlur stdDeviation="7.5"/><feComposite in2="hardAlpha" operator="out"/><feColorMatrix values="0 0 0 0 0.658824 0 0 0 0 0 0 0 0 0 1 0 0 0 0.7 0"/><feBlend in2="BackgroundImageFix" result="effect1_dropShadow"/><feColorMatrix in="SourceAlpha" values="0 0 0 0 0 0 0 0 0 0 0 0 0 0 0 0 0 0 127 0" result="hardAlpha"/><feOffset dy="2"/><feGaussianBlur stdDeviation="7.5"/><feComposite in2="hardAlpha" operator="out"/><feColorMatrix values="0 0 0 0 0.654902 0 0 0 0 0 0 0 0 0 1 0 0 0 0.5 0"/><feBlend in2="effect1_dropShadow" result="effect2_dropShadow"/><feBlend in="SourceGraphic" in2="effect2_dropShadow" result="shape"/></filter><filter id="filter1_dd" x="-5.985" y="128.765" width="78.098" height="78.039" filterUnits="userSpaceOnUse" color-interpolation-filters="sRGB"><feFlood flood-opacity="0" result="BackgroundImageFix"/><feColorMatrix in="SourceAlpha" values="0 0 0 0 0 0 0 0 0 0 0 0 0 0 0 0 0 0 127 0" result="hardAlpha"/><feOffset dy="2"/><feGaussianBlur stdDeviation="7.5"/><feComposite in2="hardAlpha" operator="out"/><feColorMatrix values="0 0 0 0 0.988235 0 0 0 0 1 0 0 0 0 0 0 0 0 0.7 0"/><feBlend in2="BackgroundImageFix" result="effect1_dropShadow"/><feColorMatrix in="SourceAlpha" values="0 0 0 0 0 0 0 0 0 0 0 0 0 0 0 0 0 0 127 0" result="hardAlpha"/><feOffset dy="4"/><feGaussianBlur stdDeviation="7.5"/><feComposite in2="hardAlpha" operator="out"/><feColorMatrix values="0 0 0 0 0.988235 0 0 0 0 1 0 0 0 0 0.027451 0 0 0 0.5 0"/><feBlend in2="effect1_dropShadow" result="effect2_dropShadow"/><feBlend in="SourceGraphic" in2="effect2_dropShadow" result="shape"/></filter><filter id="filter2_dd" x="-7.401" y="-2.695" width="78.012" height="80" filterUnits="userSpaceOnUse" color-interpolation-filters="sRGB"><feFlood flood-opacity="0" result="BackgroundImageFix"/><feColorMatrix in="SourceAlpha" values="0 0 0 0 0 0 0 0 0 0 0 0 0 0 0 0 0 0 127 0" result="hardAlpha"/><feOffset dy="2"/><feGaussianBlur stdDeviation="10"/><feComposite in2="hardAlpha" operator="out"/><feColorMatrix values="0 0 0 0 0.65098 0 0 0 0 0 0 0 0 0 1 0 0 0 0.8 0"/><feBlend in2="BackgroundImageFix" result="effect1_dropShadow"/><feColorMatrix in="SourceAlpha" values="0 0 0 0 0 0 0 0 0 0 0 0 0 0 0 0 0 0 127 0" result="hardAlpha"/><feOffset dy="2"/><feGaussianBlur stdDeviation="7.5"/><feComposite in2="hardAlpha" operator="out"/><feColorMatrix values="0 0 0 0 0.65098 0 0 0 0 0 0 0 0 0 1 0 0 0 0.5 0"/><feBlend in2="effect1_dropShadow" result="effect2_dropShadow"/><feBlend in="SourceGraphic" in2="effect2_dropShadow" result="shape"/></filter><filter id="filter3_dd" x="-1.783" y="67.522" width="68.132" height="76.032" filterUnits="userSpaceOnUse" color-interpolation-filters="sRGB"><feFlood flood-opacity="0" result="BackgroundImageFix"/><feColorMatrix in="SourceAlpha" values="0 0 0 0 0 0 0 0 0 0 0 0 0 0 0 0 0 0 127 0" result="hardAlpha"/><feOffset dy="2"/><feGaussianBlur stdDeviation="7.5"/><feComposite in2="hardAlpha" operator="out"/><feColorMatrix values="0 0 0 0 0.219608 0 0 0 0 0.796078 0 0 0 0 0.129412 0 0 0 1 0"/><feBlend in2="BackgroundImageFix" result="effect1_dropShadow"/><feColorMatrix in="SourceAlpha" values="0 0 0 0 0 0 0 0 0 0 0 0 0 0 0 0 0 0 127 0" result="hardAlpha"/><feOffset dy="2"/><feGaussianBlur stdDeviation="5"/><feComposite in2="hardAlpha" operator="out"/><feColorMatrix values="0 0 0 0 0.219608 0 0 0 0 0.796078 0 0 0 0 0.129412 0 0 0 0.5 0"/><feBlend in2="effect1_dropShadow" result="effect2_dropShadow"/><feBlend in="SourceGraphic" in2="effect2_dropShadow" result="shape"/></filter><filter id="filter4_dd" x="-7.915" y="268.007" width="82" height="73" filterUnits="userSpaceOnUse" color-interpolation-filters="sRGB"><feFlood flood-opacity="0" result="BackgroundImageFix"/><feColorMatrix in="SourceAlpha" values="0 0 0 0 0 0 0 0 0 0 0 0 0 0 0 0 0 0 127 0" result="hardAlpha"/><feOffset dy="2"/><feGaussianBlur stdDeviation="10"/><feComposite in2="hardAlpha" operator="out"/><feColorMatrix values="0 0 0 0 0.988235 0 0 0 0 1 0 0 0 0 0.027451 0 0 0 0.8 0"/><feBlend in2="BackgroundImageFix" result="effect1_dropShadow"/><feColorMatrix in="SourceAlpha" values="0 0 0 0 0 0 0 0 0 0 0 0 0 0 0 0 0 0 127 0" result="hardAlpha"/><feOffset dy="2"/><feGaussianBlur stdDeviation="7.5"/><feComposite in2="hardAlpha" operator="out"/><feColorMatrix values="0 0 0 0 0.980392 0 0 0 0 1 0 0 0 0 0 0 0 0 0.5 0"/><feBlend in2="effect1_dropShadow" result="effect2_dropShadow"/><feBlend in="SourceGraphic" in2="effect2_dropShadow" result="shape"/></filter><clipPath id="clip0"><path fill="#fff" d="M0 0h67v335H0z"/></clipPath></defs></svg>